<svg version="1.1" xmlns="http://www.w3.org/2000/svg" xmlns:xlink="http://www.w3.org/1999/xlink" width="447.0908203125" height="717"><defs/><g><text fill="#eeeeee" stroke="none" font-family="Arial" font-size="24px" font-style="normal" font-weight="normal" text-decoration="none" x="0" y="0">UNREGISTERED</text><text fill="#eeeeee" stroke="none" font-family="Arial" font-size="24px" font-style="normal" font-weight="normal" text-decoration="none" x="0" y="30">UNREGISTERED</text><text fill="#eeeeee" stroke="none" font-family="Arial" font-size="24px" font-style="normal" font-weight="normal" text-decoration="none" x="0" y="60">UNREGISTERED</text><text fill="#eeeeee" stroke="none" font-family="Arial" font-size="24px" font-style="normal" font-weight="normal" text-decoration="none" x="0" y="90">UNREGISTERED</text><text fill="#eeeeee" stroke="none" font-family="Arial" font-size="24px" font-style="normal" font-weight="normal" text-decoration="none" x="0" y="120">UNREGISTERED</text><text fill="#eeeeee" stroke="none" font-family="Arial" font-size="24px" font-style="normal" font-weight="normal" text-decoration="none" x="0" y="150">UNREGISTERED</text><text fill="#eeeeee" stroke="none" font-family="Arial" font-size="24px" font-style="normal" font-weight="normal" text-decoration="none" x="0" y="180">UNREGISTERED</text><text fill="#eeeeee" stroke="none" font-family="Arial" font-size="24px" font-style="normal" font-weight="normal" text-decoration="none" x="0" y="210">UNREGISTERED</text><text fill="#eeeeee" stroke="none" font-family="Arial" font-size="24px" font-style="normal" font-weight="normal" text-decoration="none" x="0" y="240">UNREGISTERED</text><text fill="#eeeeee" stroke="none" font-family="Arial" font-size="24px" font-style="normal" font-weight="normal" text-decoration="none" x="0" y="270">UNREGISTERED</text><text fill="#eeeeee" stroke="none" font-family="Arial" font-size="24px" font-style="normal" font-weight="normal" text-decoration="none" x="0" y="300">UNREGISTERED</text><text fill="#eeeeee" stroke="none" font-family="Arial" font-size="24px" font-style="normal" font-weight="normal" text-decoration="none" x="0" y="330">UNREGISTERED</text><text fill="#eeeeee" stroke="none" font-family="Arial" font-size="24px" font-style="normal" font-weight="normal" text-decoration="none" x="0" y="360">UNREGISTERED</text><text fill="#eeeeee" stroke="none" font-family="Arial" font-size="24px" font-style="normal" font-weight="normal" text-decoration="none" x="0" y="390">UNREGISTERED</text><text fill="#eeeeee" stroke="none" font-family="Arial" font-size="24px" font-style="normal" font-weight="normal" text-decoration="none" x="0" y="420">UNREGISTERED</text><text fill="#eeeeee" stroke="none" font-family="Arial" font-size="24px" font-style="normal" font-weight="normal" text-decoration="none" x="0" y="450">UNREGISTERED</text><text fill="#eeeeee" stroke="none" font-family="Arial" font-size="24px" font-style="normal" font-weight="normal" text-decoration="none" x="0" y="480">UNREGISTERED</text><text fill="#eeeeee" stroke="none" font-family="Arial" font-size="24px" font-style="normal" font-weight="normal" text-decoration="none" x="0" y="510">UNREGISTERED</text><text fill="#eeeeee" stroke="none" font-family="Arial" font-size="24px" font-style="normal" font-weight="normal" text-decoration="none" x="0" y="540">UNREGISTERED</text><text fill="#eeeeee" stroke="none" font-family="Arial" font-size="24px" font-style="normal" font-weight="normal" text-decoration="none" x="0" y="570">UNREGISTERED</text><text fill="#eeeeee" stroke="none" font-family="Arial" font-size="24px" font-style="normal" font-weight="normal" text-decoration="none" x="0" y="600">UNREGISTERED</text><text fill="#eeeeee" stroke="none" font-family="Arial" font-size="24px" font-style="normal" font-weight="normal" text-decoration="none" x="0" y="630">UNREGISTERED</text><text fill="#eeeeee" stroke="none" font-family="Arial" font-size="24px" font-style="normal" font-weight="normal" text-decoration="none" x="0" y="660">UNREGISTERED</text><text fill="#eeeeee" stroke="none" font-family="Arial" font-size="24px" font-style="normal" font-weight="normal" text-decoration="none" x="0" y="690">UNREGISTERED</text><text fill="#eeeeee" stroke="none" font-family="Arial" font-size="24px" font-style="normal" font-weight="normal" text-decoration="none" x="200" y="0">UNREGISTERED</text><text fill="#eeeeee" stroke="none" font-family="Arial" font-size="24px" font-style="normal" font-weight="normal" text-decoration="none" x="200" y="30">UNREGISTERED</text><text fill="#eeeeee" stroke="none" font-family="Arial" font-size="24px" font-style="normal" font-weight="normal" text-decoration="none" x="200" y="60">UNREGISTERED</text><text fill="#eeeeee" stroke="none" font-family="Arial" font-size="24px" font-style="normal" font-weight="normal" text-decoration="none" x="200" y="90">UNREGISTERED</text><text fill="#eeeeee" stroke="none" font-family="Arial" font-size="24px" font-style="normal" font-weight="normal" text-decoration="none" x="200" y="120">UNREGISTERED</text><text fill="#eeeeee" stroke="none" font-family="Arial" font-size="24px" font-style="normal" font-weight="normal" text-decoration="none" x="200" y="150">UNREGISTERED</text><text fill="#eeeeee" stroke="none" font-family="Arial" font-size="24px" font-style="normal" font-weight="normal" text-decoration="none" x="200" y="180">UNREGISTERED</text><text fill="#eeeeee" stroke="none" font-family="Arial" font-size="24px" font-style="normal" font-weight="normal" text-decoration="none" x="200" y="210">UNREGISTERED</text><text fill="#eeeeee" stroke="none" font-family="Arial" font-size="24px" font-style="normal" font-weight="normal" text-decoration="none" x="200" y="240">UNREGISTERED</text><text fill="#eeeeee" stroke="none" font-family="Arial" font-size="24px" font-style="normal" font-weight="normal" text-decoration="none" x="200" y="270">UNREGISTERED</text><text fill="#eeeeee" stroke="none" font-family="Arial" font-size="24px" font-style="normal" font-weight="normal" text-decoration="none" x="200" y="300">UNREGISTERED</text><text fill="#eeeeee" stroke="none" font-family="Arial" font-size="24px" font-style="normal" font-weight="normal" text-decoration="none" x="200" y="330">UNREGISTERED</text><text fill="#eeeeee" stroke="none" font-family="Arial" font-size="24px" font-style="normal" font-weight="normal" text-decoration="none" x="200" y="360">UNREGISTERED</text><text fill="#eeeeee" stroke="none" font-family="Arial" font-size="24px" font-style="normal" font-weight="normal" text-decoration="none" x="200" y="390">UNREGISTERED</text><text fill="#eeeeee" stroke="none" font-family="Arial" font-size="24px" font-style="normal" font-weight="normal" text-decoration="none" x="200" y="420">UNREGISTERED</text><text fill="#eeeeee" stroke="none" font-family="Arial" font-size="24px" font-style="normal" font-weight="normal" text-decoration="none" x="200" y="450">UNREGISTERED</text><text fill="#eeeeee" stroke="none" font-family="Arial" font-size="24px" font-style="normal" font-weight="normal" text-decoration="none" x="200" y="480">UNREGISTERED</text><text fill="#eeeeee" stroke="none" font-family="Arial" font-size="24px" font-style="normal" font-weight="normal" text-decoration="none" x="200" y="510">UNREGISTERED</text><text fill="#eeeeee" stroke="none" font-family="Arial" font-size="24px" font-style="normal" font-weight="normal" text-decoration="none" x="200" y="540">UNREGISTERED</text><text fill="#eeeeee" stroke="none" font-family="Arial" font-size="24px" font-style="normal" font-weight="normal" text-decoration="none" x="200" y="570">UNREGISTERED</text><text fill="#eeeeee" stroke="none" font-family="Arial" font-size="24px" font-style="normal" font-weight="normal" text-decoration="none" x="200" y="600">UNREGISTERED</text><text fill="#eeeeee" stroke="none" font-family="Arial" font-size="24px" font-style="normal" font-weight="normal" text-decoration="none" x="200" y="630">UNREGISTERED</text><text fill="#eeeeee" stroke="none" font-family="Arial" font-size="24px" font-style="normal" font-weight="normal" text-decoration="none" x="200" y="660">UNREGISTERED</text><text fill="#eeeeee" stroke="none" font-family="Arial" font-size="24px" font-style="normal" font-weight="normal" text-decoration="none" x="200" y="690">UNREGISTERED</text><text fill="#eeeeee" stroke="none" font-family="Arial" font-size="24px" font-style="normal" font-weight="normal" text-decoration="none" x="400" y="0">UNREGISTERED</text><text fill="#eeeeee" stroke="none" font-family="Arial" font-size="24px" font-style="normal" font-weight="normal" text-decoration="none" x="400" y="30">UNREGISTERED</text><text fill="#eeeeee" stroke="none" font-family="Arial" font-size="24px" font-style="normal" font-weight="normal" text-decoration="none" x="400" y="60">UNREGISTERED</text><text fill="#eeeeee" stroke="none" font-family="Arial" font-size="24px" font-style="normal" font-weight="normal" text-decoration="none" x="400" y="90">UNREGISTERED</text><text fill="#eeeeee" stroke="none" font-family="Arial" font-size="24px" font-style="normal" font-weight="normal" text-decoration="none" x="400" y="120">UNREGISTERED</text><text fill="#eeeeee" stroke="none" font-family="Arial" font-size="24px" font-style="normal" font-weight="normal" text-decoration="none" x="400" y="150">UNREGISTERED</text><text fill="#eeeeee" stroke="none" font-family="Arial" font-size="24px" font-style="normal" font-weight="normal" text-decoration="none" x="400" y="180">UNREGISTERED</text><text fill="#eeeeee" stroke="none" font-family="Arial" font-size="24px" font-style="normal" font-weight="normal" text-decoration="none" x="400" y="210">UNREGISTERED</text><text fill="#eeeeee" stroke="none" font-family="Arial" font-size="24px" font-style="normal" font-weight="normal" text-decoration="none" x="400" y="240">UNREGISTERED</text><text fill="#eeeeee" stroke="none" font-family="Arial" font-size="24px" font-style="normal" font-weight="normal" text-decoration="none" x="400" y="270">UNREGISTERED</text><text fill="#eeeeee" stroke="none" font-family="Arial" font-size="24px" font-style="normal" font-weight="normal" text-decoration="none" x="400" y="300">UNREGISTERED</text><text fill="#eeeeee" stroke="none" font-family="Arial" font-size="24px" font-style="normal" font-weight="normal" text-decoration="none" x="400" y="330">UNREGISTERED</text><text fill="#eeeeee" stroke="none" font-family="Arial" font-size="24px" font-style="normal" font-weight="normal" text-decoration="none" x="400" y="360">UNREGISTERED</text><text fill="#eeeeee" stroke="none" font-family="Arial" font-size="24px" font-style="normal" font-weight="normal" text-decoration="none" x="400" y="390">UNREGISTERED</text><text fill="#eeeeee" stroke="none" font-family="Arial" font-size="24px" font-style="normal" font-weight="normal" text-decoration="none" x="400" y="420">UNREGISTERED</text><text fill="#eeeeee" stroke="none" font-family="Arial" font-size="24px" font-style="normal" font-weight="normal" text-decoration="none" x="400" y="450">UNREGISTERED</text><text fill="#eeeeee" stroke="none" font-family="Arial" font-size="24px" font-style="normal" font-weight="normal" text-decoration="none" x="400" y="480">UNREGISTERED</text><text fill="#eeeeee" stroke="none" font-family="Arial" font-size="24px" font-style="normal" font-weight="normal" text-decoration="none" x="400" y="510">UNREGISTERED</text><text fill="#eeeeee" stroke="none" font-family="Arial" font-size="24px" font-style="normal" font-weight="normal" text-decoration="none" x="400" y="540">UNREGISTERED</text><text fill="#eeeeee" stroke="none" font-family="Arial" font-size="24px" font-style="normal" font-weight="normal" text-decoration="none" x="400" y="570">UNREGISTERED</text><text fill="#eeeeee" stroke="none" font-family="Arial" font-size="24px" font-style="normal" font-weight="normal" text-decoration="none" x="400" y="600">UNREGISTERED</text><text fill="#eeeeee" stroke="none" font-family="Arial" font-size="24px" font-style="normal" font-weight="normal" text-decoration="none" x="400" y="630">UNREGISTERED</text><text fill="#eeeeee" stroke="none" font-family="Arial" font-size="24px" font-style="normal" font-weight="normal" text-decoration="none" x="400" y="660">UNREGISTERED</text><text fill="#eeeeee" stroke="none" font-family="Arial" font-size="24px" font-style="normal" font-weight="normal" text-decoration="none" x="400" y="690">UNREGISTERED</text><g transform="translate(-166,-62) scale(1,1)"><rect fill="#ffffff" stroke="none" x="176" y="72" width="168" height="21"/></g><g transform="translate(-166,-62) scale(1,1)"><path fill="none" stroke="#000000" d="M 176 72 L 344 72 L 344 93 L 176 93 L 176 72 Z Z" stroke-miterlimit="10" stroke-width="2"/></g><g transform="translate(-166,-62) scale(1,1)"><path fill="none" stroke="#000000" d="M 176 768 L 176 72 L 344 72 L 344 768" stroke-miterlimit="10" stroke-width="2"/></g><g transform="translate(-166,-62) scale(1,1)"><g><path fill="none" stroke="none"/><text fill="#000000" stroke="none" font-family="Arial" font-size="13px" font-style="normal" font-weight="normal" text-decoration="none" x="221.7109375" y="89">Administrator</text></g></g><g transform="translate(-166,-62) scale(1,1)"><rect fill="#ffffff" stroke="none" x="344" y="72" width="259.0908203125" height="21"/></g><g transform="translate(-166,-62) scale(1,1)"><path fill="none" stroke="#000000" d="M 344 72 L 603.0908203125 72 L 603.0908203125 93 L 344 93 L 344 72 Z Z" stroke-miterlimit="10" stroke-width="2"/></g><g transform="translate(-166,-62) scale(1,1)"><path fill="none" stroke="#000000" d="M 344 768 L 344 72 L 603.0908203125 72 L 603.0908203125 768" stroke-miterlimit="10" stroke-width="2"/></g><g transform="translate(-166,-62) scale(1,1)"><g><path fill="none" stroke="none"/><text fill="#000000" stroke="none" font-family="Arial" font-size="13px" font-style="normal" font-weight="normal" text-decoration="none" x="446.456787109375" y="89">MSEDCL</text></g></g><g transform="translate(-166,-62) scale(1,1)"><path fill="#C0C0C0" stroke="none" d="M 225 167 L 306.45361328125 167 Q 316.45361328125 167 316.45361328125 177 L 316.45361328125 223 Q 316.45361328125 233 306.45361328125 233 L 225 233 Q 215 233 215 223 L 215 177 Q 215 167 225 167 Z" opacity="0.2"/></g><g transform="translate(-166,-62) scale(1,1)"><path fill="#ffffff" stroke="none" d="M 218 160 L 299.45361328125 160 Q 309.45361328125 160 309.45361328125 170 L 309.45361328125 216 Q 309.45361328125 226 299.45361328125 226 L 218 226 Q 208 226 208 216 L 208 170 Q 208 160 218 160 Z"/></g><g transform="translate(-166,-62) scale(1,1)"><path fill="none" stroke="#000000" d="M 218 160 L 299.45361328125 160 Q 309.45361328125 160 309.45361328125 170 L 309.45361328125 216 Q 309.45361328125 226 299.45361328125 226 L 218 226 Q 208 226 208 216 L 208 170 Q 208 160 218 160 Z" stroke-miterlimit="10"/></g><g transform="translate(-166,-62) scale(1,1)"><g><path fill="none" stroke="none"/><text fill="#000000" stroke="none" font-family="Arial" font-size="13px" font-style="normal" font-weight="bold" text-decoration="none" x="227.2900390625" y="179.5">Request to</text><text fill="#000000" stroke="none" font-family="Arial" font-size="13px" font-style="normal" font-weight="bold" text-decoration="none" x="248.246826171875" y="192.5">edit</text><text fill="#000000" stroke="none" font-family="Arial" font-size="13px" font-style="normal" font-weight="bold" text-decoration="none" x="225.496826171875" y="205.5">transformer</text></g></g><g transform="translate(-166,-62) scale(1,1)"><path fill="#C0C0C0" stroke="none" d="M 255 128.5 C 255 123.2532944 259.2532944 119 264.5 119 C 269.7467056 119 274 123.2532944 274 128.5 C 274 133.7467056 269.7467056 138 264.5 138 C 259.2532944 138 255 133.7467056 255 128.5 Z" opacity="0.2"/></g><g transform="translate(-166,-62) scale(1,1)"><path fill="#000000" stroke="none" d="M 248 121.5 C 248 116.2532944 252.2532944 112 257.5 112 C 262.7467056 112 267 116.2532944 267 121.5 C 267 126.7467056 262.7467056 131 257.5 131 C 252.2532944 131 248 126.7467056 248 121.5 Z"/></g><g transform="translate(-166,-62) scale(1,1)"><path fill="#C0C0C0" stroke="none" d="M 401 167 L 562.63720703125 167 Q 572.63720703125 167 572.63720703125 177 L 572.63720703125 210 Q 572.63720703125 220 562.63720703125 220 L 401 220 Q 391 220 391 210 L 391 177 Q 391 167 401 167 Z" opacity="0.2"/></g><g transform="translate(-166,-62) scale(1,1)"><path fill="#ffffff" stroke="none" d="M 394 160 L 555.63720703125 160 Q 565.63720703125 160 565.63720703125 170 L 565.63720703125 203 Q 565.63720703125 213 555.63720703125 213 L 394 213 Q 384 213 384 203 L 384 170 Q 384 160 394 160 Z"/></g><g transform="translate(-166,-62) scale(1,1)"><path fill="none" stroke="#000000" d="M 394 160 L 555.63720703125 160 Q 565.63720703125 160 565.63720703125 170 L 565.63720703125 203 Q 565.63720703125 213 555.63720703125 213 L 394 213 Q 384 213 384 203 L 384 170 Q 384 160 394 160 Z" stroke-miterlimit="10"/></g><g transform="translate(-166,-62) scale(1,1)"><g><path fill="none" stroke="none"/><text fill="#000000" stroke="none" font-family="Arial" font-size="13px" font-style="normal" font-weight="bold" text-decoration="none" x="430.372314453125" y="179.5">Find connected</text><text fill="#000000" stroke="none" font-family="Arial" font-size="13px" font-style="normal" font-weight="bold" text-decoration="none" x="441.588623046875" y="192.5">transformer</text></g></g><g transform="translate(-166,-62) scale(1,1)"><path fill="#C0C0C0" stroke="none" d="M 393 431 L 551.75537109375 431 Q 561.75537109375 431 561.75537109375 441 L 561.75537109375 474 Q 561.75537109375 484 551.75537109375 484 L 393 484 Q 383 484 383 474 L 383 441 Q 383 431 393 431 Z" opacity="0.2"/></g><g transform="translate(-166,-62) scale(1,1)"><path fill="#ffffff" stroke="none" d="M 386 424 L 544.75537109375 424 Q 554.75537109375 424 554.75537109375 434 L 554.75537109375 467 Q 554.75537109375 477 544.75537109375 477 L 386 477 Q 376 477 376 467 L 376 434 Q 376 424 386 424 Z"/></g><g transform="translate(-166,-62) scale(1,1)"><path fill="none" stroke="#000000" d="M 386 424 L 544.75537109375 424 Q 554.75537109375 424 554.75537109375 434 L 554.75537109375 467 Q 554.75537109375 477 544.75537109375 477 L 386 477 Q 376 477 376 467 L 376 434 Q 376 424 386 424 Z" stroke-miterlimit="10"/></g><g transform="translate(-166,-62) scale(1,1)"><g><path fill="none" stroke="none"/><text fill="#000000" stroke="none" font-family="Arial" font-size="13px" font-style="normal" font-weight="bold" text-decoration="none" x="422.74365234375" y="443.5">Disconnect old</text><text fill="#000000" stroke="none" font-family="Arial" font-size="13px" font-style="normal" font-weight="bold" text-decoration="none" x="432.147705078125" y="456.5">transformer</text></g></g><g transform="translate(-166,-62) scale(1,1)"><path fill="#C0C0C0" stroke="none" d="M 393 535 L 539.47265625 535 Q 549.47265625 535 549.47265625 545 L 549.47265625 578 Q 549.47265625 588 539.47265625 588 L 393 588 Q 383 588 383 578 L 383 545 Q 383 535 393 535 Z" opacity="0.2"/></g><g transform="translate(-166,-62) scale(1,1)"><path fill="#ffffff" stroke="none" d="M 386 528 L 532.47265625 528 Q 542.47265625 528 542.47265625 538 L 542.47265625 571 Q 542.47265625 581 532.47265625 581 L 386 581 Q 376 581 376 571 L 376 538 Q 376 528 386 528 Z"/></g><g transform="translate(-166,-62) scale(1,1)"><path fill="none" stroke="#000000" d="M 386 528 L 532.47265625 528 Q 542.47265625 528 542.47265625 538 L 542.47265625 571 Q 542.47265625 581 532.47265625 581 L 386 581 Q 376 581 376 571 L 376 538 Q 376 528 386 528 Z" stroke-miterlimit="10"/></g><g transform="translate(-166,-62) scale(1,1)"><g><path fill="none" stroke="none"/><text fill="#000000" stroke="none" font-family="Arial" font-size="13px" font-style="normal" font-weight="bold" text-decoration="none" x="421.29638671875" y="547.5">Connect new</text><text fill="#000000" stroke="none" font-family="Arial" font-size="13px" font-style="normal" font-weight="bold" text-decoration="none" x="426.00634765625" y="560.5">transformer</text></g></g><g transform="translate(-166,-62) scale(1,1)"><path fill="#C0C0C0" stroke="none" d="M 201 287 L 333.7744140625 287 Q 343.7744140625 287 343.7744140625 297 L 343.7744140625 330 Q 343.7744140625 340 333.7744140625 340 L 201 340 Q 191 340 191 330 L 191 297 Q 191 287 201 287 Z" opacity="0.2"/></g><g transform="translate(-166,-62) scale(1,1)"><path fill="#ffffff" stroke="none" d="M 194 280 L 326.7744140625 280 Q 336.7744140625 280 336.7744140625 290 L 336.7744140625 323 Q 336.7744140625 333 326.7744140625 333 L 194 333 Q 184 333 184 323 L 184 290 Q 184 280 194 280 Z"/></g><g transform="translate(-166,-62) scale(1,1)"><path fill="none" stroke="#000000" d="M 194 280 L 326.7744140625 280 Q 336.7744140625 280 336.7744140625 290 L 336.7744140625 323 Q 336.7744140625 333 326.7744140625 333 L 194 333 Q 184 333 184 323 L 184 290 Q 184 280 194 280 Z" stroke-miterlimit="10"/></g><g transform="translate(-166,-62) scale(1,1)"><g><path fill="none" stroke="none"/><text fill="#000000" stroke="none" font-family="Arial" font-size="13px" font-style="normal" font-weight="bold" text-decoration="none" x="228.591796875" y="299.5">Select new</text><text fill="#000000" stroke="none" font-family="Arial" font-size="13px" font-style="normal" font-weight="bold" text-decoration="none" x="227.1572265625" y="312.5">transformer</text></g></g><g transform="translate(-166,-62) scale(1,1)"><path fill="none" stroke="#000000" d="M 257 132 L 258 159" stroke-miterlimit="10"/></g><g transform="translate(-166,-62) scale(1,1)"><path fill="none" stroke="#000000" d="M 253.41722899170594 149.0000895061236 L 258 159 L 261.8304960648887 148.68848702193162" stroke-miterlimit="10"/></g><g transform="translate(-166,-62) scale(1,1)"><path fill="none" stroke="#000000" d="M 310 191 L 383 189" stroke-miterlimit="10"/></g><g transform="translate(-166,-62) scale(1,1)"><path fill="none" stroke="#000000" d="M 372.9564230928736 193.48626380305902 L 383 189 L 372.7258511042675 185.0703862189371" stroke-miterlimit="10"/></g><g transform="translate(-166,-62) scale(1,1)"><path fill="none" stroke="#000000" d="M 424 214 L 308 279" stroke-miterlimit="10"/></g><g transform="translate(-166,-62) scale(1,1)"><path fill="none" stroke="#000000" d="M 314.80794287714525 270.3598661016436 L 308 279 L 318.92343984424764 277.7044453044725" stroke-miterlimit="10"/></g><g transform="translate(-166,-62) scale(1,1)"><path fill="#C0C0C0" stroke="none" d="M 463 392.5 L 474.5 383 L 485 392.5 L 474.5 401 L 463 392.5" opacity="0.2"/></g><g transform="translate(-166,-62) scale(1,1)"><path fill="#ffffff" stroke="none" d="M 456 385 L 467 376 L 478 385 L 467 394 L 456 385"/></g><g transform="translate(-166,-62) scale(1,1)"><path fill="none" stroke="#000000" d="M 456 385 L 467 376 L 478 385 L 467 394 L 456 385 L 456 385" stroke-miterlimit="10"/></g><g transform="translate(-166,-62) scale(1,1)"><path fill="#C0C0C0" stroke="none" d="M 377 287 L 580.56982421875 287 Q 590.56982421875 287 590.56982421875 297 L 590.56982421875 330 Q 590.56982421875 340 580.56982421875 340 L 377 340 Q 367 340 367 330 L 367 297 Q 367 287 377 287 Z" opacity="0.2"/></g><g transform="translate(-166,-62) scale(1,1)"><path fill="#ffffff" stroke="none" d="M 370 280 L 573.56982421875 280 Q 583.56982421875 280 583.56982421875 290 L 583.56982421875 323 Q 583.56982421875 333 573.56982421875 333 L 370 333 Q 360 333 360 323 L 360 290 Q 360 280 370 280 Z"/></g><g transform="translate(-166,-62) scale(1,1)"><path fill="none" stroke="#000000" d="M 370 280 L 573.56982421875 280 Q 583.56982421875 280 583.56982421875 290 L 583.56982421875 323 Q 583.56982421875 333 573.56982421875 333 L 370 333 Q 360 333 360 323 L 360 290 Q 360 280 370 280 Z" stroke-miterlimit="10"/></g><g transform="translate(-166,-62) scale(1,1)"><g><path fill="none" stroke="none"/><text fill="#000000" stroke="none" font-family="Arial" font-size="13px" font-style="normal" font-weight="bold" text-decoration="none" x="406.76904296875" y="299.5">Check if transformer is</text><text fill="#000000" stroke="none" font-family="Arial" font-size="13px" font-style="normal" font-weight="bold" text-decoration="none" x="439.621337890625" y="312.5">overloaded</text></g></g><g transform="translate(-166,-62) scale(1,1)"><path fill="none" stroke="#000000" d="M 338 306 L 359 306" stroke-miterlimit="10"/></g><g transform="translate(-166,-62) scale(1,1)"><path fill="none" stroke="#000000" d="M 348.83732514237585 310.209517756016 L 359 306 L 348.83732514237585 301.790482243984" stroke-miterlimit="10"/></g><g transform="translate(-166,-62) scale(1,1)"><path fill="none" stroke="#000000" d="M 470 334 L 468 375" stroke-miterlimit="10"/></g><g transform="translate(-166,-62) scale(1,1)"><path fill="none" stroke="#000000" d="M 464.29063314463417 364.6442963767635 L 468 375 L 472.69966979861084 365.0544932867136" stroke-miterlimit="10"/></g><g transform="translate(-166,-62) scale(1,1)"><path fill="none" stroke="#000000" d="M 467 395 L 466 423" stroke-miterlimit="10"/></g><g transform="translate(-166,-62) scale(1,1)"><path fill="none" stroke="#000000" d="M 462.1558857396898 412.6935561150473 L 466 423 L 470.56955709984743 412.99404437791003" stroke-miterlimit="10"/></g><g transform="translate(-166,-62) scale(1,1)"><g><path fill="none" stroke="none"/><text fill="#000000" stroke="none" font-family="Arial" font-size="13px" font-style="normal" font-weight="normal" text-decoration="none" x="471.5" y="414.5">No</text></g></g><g transform="translate(-166,-62) scale(1,1)"><path fill="none" stroke="#000000" d="M 455 380 L 333 334" stroke-miterlimit="10"/></g><g transform="translate(-166,-62) scale(1,1)"><path fill="none" stroke="#000000" d="M 343.9943215466273 333.64659693073446 L 333 334 L 341.02405302693535 341.52426561339576" stroke-miterlimit="10"/></g><g transform="translate(-166,-62) scale(1,1)"><g><path fill="none" stroke="none"/><text fill="#000000" stroke="none" font-family="Arial" font-size="13px" font-style="normal" font-weight="normal" text-decoration="none" x="377.5" y="377.5">Yes</text></g></g><g transform="translate(-166,-62) scale(1,1)"><path fill="none" stroke="#000000" d="M 463 478 L 461 527" stroke-miterlimit="10"/></g><g transform="translate(-166,-62) scale(1,1)"><path fill="none" stroke="#000000" d="M 457.2084423005266 516.6741058396105 L 461 527 L 465.62047362206823 517.0174540568164" stroke-miterlimit="10"/></g><g transform="translate(-166,-62) scale(1,1)"><path fill="#C0C0C0" stroke="none" d="M 401 631 L 529.419921875 631 Q 539.419921875 631 539.419921875 641 L 539.419921875 674 Q 539.419921875 684 529.419921875 684 L 401 684 Q 391 684 391 674 L 391 641 Q 391 631 401 631 Z" opacity="0.2"/></g><g transform="translate(-166,-62) scale(1,1)"><path fill="#ffffff" stroke="none" d="M 394 624 L 522.419921875 624 Q 532.419921875 624 532.419921875 634 L 532.419921875 667 Q 532.419921875 677 522.419921875 677 L 394 677 Q 384 677 384 667 L 384 634 Q 384 624 394 624 Z"/></g><g transform="translate(-166,-62) scale(1,1)"><path fill="none" stroke="#000000" d="M 394 624 L 522.419921875 624 Q 532.419921875 624 532.419921875 634 L 532.419921875 667 Q 532.419921875 677 522.419921875 677 L 394 677 Q 384 677 384 667 L 384 634 Q 384 624 394 624 Z" stroke-miterlimit="10"/></g><g transform="translate(-166,-62) scale(1,1)"><g><path fill="none" stroke="none"/><text fill="#000000" stroke="none" font-family="Arial" font-size="13px" font-style="normal" font-weight="bold" text-decoration="none" x="412.332275390625" y="643.5">Display network</text><text fill="#000000" stroke="none" font-family="Arial" font-size="13px" font-style="normal" font-weight="bold" text-decoration="none" x="441.58544921875" y="656.5">graph</text></g></g><g transform="translate(-166,-62) scale(1,1)"><path fill="#C0C0C0" stroke="none" d="M 209 631 L 320.56689453125 631 Q 330.56689453125 631 330.56689453125 641 L 330.56689453125 674 Q 330.56689453125 684 320.56689453125 684 L 209 684 Q 199 684 199 674 L 199 641 Q 199 631 209 631 Z" opacity="0.2"/></g><g transform="translate(-166,-62) scale(1,1)"><path fill="#ffffff" stroke="none" d="M 202 624 L 313.56689453125 624 Q 323.56689453125 624 323.56689453125 634 L 323.56689453125 667 Q 323.56689453125 677 313.56689453125 677 L 202 677 Q 192 677 192 667 L 192 634 Q 192 624 202 624 Z"/></g><g transform="translate(-166,-62) scale(1,1)"><path fill="none" stroke="#000000" d="M 202 624 L 313.56689453125 624 Q 323.56689453125 624 323.56689453125 634 L 323.56689453125 667 Q 323.56689453125 677 313.56689453125 677 L 202 677 Q 192 677 192 667 L 192 634 Q 192 624 202 624 Z" stroke-miterlimit="10"/></g><g transform="translate(-166,-62) scale(1,1)"><g><path fill="none" stroke="none"/><text fill="#000000" stroke="none" font-family="Arial" font-size="13px" font-style="normal" font-weight="bold" text-decoration="none" x="219.246826171875" y="643.5">View network</text><text fill="#000000" stroke="none" font-family="Arial" font-size="13px" font-style="normal" font-weight="bold" text-decoration="none" x="241.158935546875" y="656.5">graph</text></g></g><g transform="translate(-166,-62) scale(1,1)"><path fill="#C0C0C0" stroke="none" d="M 255 763.5 C 255 756.59644 260.59644 751 267.5 751 C 274.40356 751 280 756.59644 280 763.5 C 280 770.40356 274.40356 776 267.5 776 C 260.59644 776 255 770.40356 255 763.5 Z" opacity="0.2"/></g><g transform="translate(-166,-62) scale(1,1)"><path fill="none" stroke="#000000" d="M 248 756.5 C 248 749.59644 253.59644 744 260.5 744 C 267.40356 744 273 749.59644 273 756.5 C 273 763.40356 267.40356 769 260.5 769 C 253.59644 769 248 763.40356 248 756.5 Z" stroke-miterlimit="10"/></g><g transform="translate(-166,-62) scale(1,1)"><path fill="#000000" stroke="none" d="M 253 756.5 C 253 752.357864 256.357864 749 260.5 749 C 264.642136 749 268 752.357864 268 756.5 C 268 760.642136 264.642136 764 260.5 764 C 256.357864 764 253 760.642136 253 756.5 Z"/></g><g transform="translate(-166,-62) scale(1,1)"><path fill="none" stroke="#000000" d="M 459 582 L 458 623" stroke-miterlimit="10"/></g><g transform="translate(-166,-62) scale(1,1)"><path fill="none" stroke="#000000" d="M 454.03953019737423 612.7377059610197 L 458 623 L 462.456062651372 612.9429872403856" stroke-miterlimit="10"/></g><g transform="translate(-166,-62) scale(1,1)"><path fill="none" stroke="#000000" d="M 383 650 L 325 650" stroke-miterlimit="10"/></g><g transform="translate(-166,-62) scale(1,1)"><path fill="none" stroke="#000000" d="M 335.16267485762415 645.790482243984 L 325 650 L 335.16267485762415 654.209517756016" stroke-miterlimit="10"/></g><g transform="translate(-166,-62) scale(1,1)"><path fill="none" stroke="#000000" d="M 258 678 L 260 743" stroke-miterlimit="10"/></g><g transform="translate(-166,-62) scale(1,1)"><path fill="none" stroke="#000000" d="M 255.47992373093743 732.9715948166292 L 260 743 L 263.8949767283133 732.7126701090177" stroke-miterlimit="10"/></g></g></svg>