<svg version="1.1" xmlns="http://www.w3.org/2000/svg" xmlns:xlink="http://www.w3.org/1999/xlink" width="692" height="319"><defs/><g><text fill="#eeeeee" stroke="none" font-family="Arial" font-size="24px" font-style="normal" font-weight="normal" text-decoration="none" x="0" y="0">UNREGISTERED</text><text fill="#eeeeee" stroke="none" font-family="Arial" font-size="24px" font-style="normal" font-weight="normal" text-decoration="none" x="0" y="30">UNREGISTERED</text><text fill="#eeeeee" stroke="none" font-family="Arial" font-size="24px" font-style="normal" font-weight="normal" text-decoration="none" x="0" y="60">UNREGISTERED</text><text fill="#eeeeee" stroke="none" font-family="Arial" font-size="24px" font-style="normal" font-weight="normal" text-decoration="none" x="0" y="90">UNREGISTERED</text><text fill="#eeeeee" stroke="none" font-family="Arial" font-size="24px" font-style="normal" font-weight="normal" text-decoration="none" x="0" y="120">UNREGISTERED</text><text fill="#eeeeee" stroke="none" font-family="Arial" font-size="24px" font-style="normal" font-weight="normal" text-decoration="none" x="0" y="150">UNREGISTERED</text><text fill="#eeeeee" stroke="none" font-family="Arial" font-size="24px" font-style="normal" font-weight="normal" text-decoration="none" x="0" y="180">UNREGISTERED</text><text fill="#eeeeee" stroke="none" font-family="Arial" font-size="24px" font-style="normal" font-weight="normal" text-decoration="none" x="0" y="210">UNREGISTERED</text><text fill="#eeeeee" stroke="none" font-family="Arial" font-size="24px" font-style="normal" font-weight="normal" text-decoration="none" x="0" y="240">UNREGISTERED</text><text fill="#eeeeee" stroke="none" font-family="Arial" font-size="24px" font-style="normal" font-weight="normal" text-decoration="none" x="0" y="270">UNREGISTERED</text><text fill="#eeeeee" stroke="none" font-family="Arial" font-size="24px" font-style="normal" font-weight="normal" text-decoration="none" x="0" y="300">UNREGISTERED</text><text fill="#eeeeee" stroke="none" font-family="Arial" font-size="24px" font-style="normal" font-weight="normal" text-decoration="none" x="200" y="0">UNREGISTERED</text><text fill="#eeeeee" stroke="none" font-family="Arial" font-size="24px" font-style="normal" font-weight="normal" text-decoration="none" x="200" y="30">UNREGISTERED</text><text fill="#eeeeee" stroke="none" font-family="Arial" font-size="24px" font-style="normal" font-weight="normal" text-decoration="none" x="200" y="60">UNREGISTERED</text><text fill="#eeeeee" stroke="none" font-family="Arial" font-size="24px" font-style="normal" font-weight="normal" text-decoration="none" x="200" y="90">UNREGISTERED</text><text fill="#eeeeee" stroke="none" font-family="Arial" font-size="24px" font-style="normal" font-weight="normal" text-decoration="none" x="200" y="120">UNREGISTERED</text><text fill="#eeeeee" stroke="none" font-family="Arial" font-size="24px" font-style="normal" font-weight="normal" text-decoration="none" x="200" y="150">UNREGISTERED</text><text fill="#eeeeee" stroke="none" font-family="Arial" font-size="24px" font-style="normal" font-weight="normal" text-decoration="none" x="200" y="180">UNREGISTERED</text><text fill="#eeeeee" stroke="none" font-family="Arial" font-size="24px" font-style="normal" font-weight="normal" text-decoration="none" x="200" y="210">UNREGISTERED</text><text fill="#eeeeee" stroke="none" font-family="Arial" font-size="24px" font-style="normal" font-weight="normal" text-decoration="none" x="200" y="240">UNREGISTERED</text><text fill="#eeeeee" stroke="none" font-family="Arial" font-size="24px" font-style="normal" font-weight="normal" text-decoration="none" x="200" y="270">UNREGISTERED</text><text fill="#eeeeee" stroke="none" font-family="Arial" font-size="24px" font-style="normal" font-weight="normal" text-decoration="none" x="200" y="300">UNREGISTERED</text><text fill="#eeeeee" stroke="none" font-family="Arial" font-size="24px" font-style="normal" font-weight="normal" text-decoration="none" x="400" y="0">UNREGISTERED</text><text fill="#eeeeee" stroke="none" font-family="Arial" font-size="24px" font-style="normal" font-weight="normal" text-decoration="none" x="400" y="30">UNREGISTERED</text><text fill="#eeeeee" stroke="none" font-family="Arial" font-size="24px" font-style="normal" font-weight="normal" text-decoration="none" x="400" y="60">UNREGISTERED</text><text fill="#eeeeee" stroke="none" font-family="Arial" font-size="24px" font-style="normal" font-weight="normal" text-decoration="none" x="400" y="90">UNREGISTERED</text><text fill="#eeeeee" stroke="none" font-family="Arial" font-size="24px" font-style="normal" font-weight="normal" text-decoration="none" x="400" y="120">UNREGISTERED</text><text fill="#eeeeee" stroke="none" font-family="Arial" font-size="24px" font-style="normal" font-weight="normal" text-decoration="none" x="400" y="150">UNREGISTERED</text><text fill="#eeeeee" stroke="none" font-family="Arial" font-size="24px" font-style="normal" font-weight="normal" text-decoration="none" x="400" y="180">UNREGISTERED</text><text fill="#eeeeee" stroke="none" font-family="Arial" font-size="24px" font-style="normal" font-weight="normal" text-decoration="none" x="400" y="210">UNREGISTERED</text><text fill="#eeeeee" stroke="none" font-family="Arial" font-size="24px" font-style="normal" font-weight="normal" text-decoration="none" x="400" y="240">UNREGISTERED</text><text fill="#eeeeee" stroke="none" font-family="Arial" font-size="24px" font-style="normal" font-weight="normal" text-decoration="none" x="400" y="270">UNREGISTERED</text><text fill="#eeeeee" stroke="none" font-family="Arial" font-size="24px" font-style="normal" font-weight="normal" text-decoration="none" x="400" y="300">UNREGISTERED</text><text fill="#eeeeee" stroke="none" font-family="Arial" font-size="24px" font-style="normal" font-weight="normal" text-decoration="none" x="600" y="0">UNREGISTERED</text><text fill="#eeeeee" stroke="none" font-family="Arial" font-size="24px" font-style="normal" font-weight="normal" text-decoration="none" x="600" y="30">UNREGISTERED</text><text fill="#eeeeee" stroke="none" font-family="Arial" font-size="24px" font-style="normal" font-weight="normal" text-decoration="none" x="600" y="60">UNREGISTERED</text><text fill="#eeeeee" stroke="none" font-family="Arial" font-size="24px" font-style="normal" font-weight="normal" text-decoration="none" x="600" y="90">UNREGISTERED</text><text fill="#eeeeee" stroke="none" font-family="Arial" font-size="24px" font-style="normal" font-weight="normal" text-decoration="none" x="600" y="120">UNREGISTERED</text><text fill="#eeeeee" stroke="none" font-family="Arial" font-size="24px" font-style="normal" font-weight="normal" text-decoration="none" x="600" y="150">UNREGISTERED</text><text fill="#eeeeee" stroke="none" font-family="Arial" font-size="24px" font-style="normal" font-weight="normal" text-decoration="none" x="600" y="180">UNREGISTERED</text><text fill="#eeeeee" stroke="none" font-family="Arial" font-size="24px" font-style="normal" font-weight="normal" text-decoration="none" x="600" y="210">UNREGISTERED</text><text fill="#eeeeee" stroke="none" font-family="Arial" font-size="24px" font-style="normal" font-weight="normal" text-decoration="none" x="600" y="240">UNREGISTERED</text><text fill="#eeeeee" stroke="none" font-family="Arial" font-size="24px" font-style="normal" font-weight="normal" text-decoration="none" x="600" y="270">UNREGISTERED</text><text fill="#eeeeee" stroke="none" font-family="Arial" font-size="24px" font-style="normal" font-weight="normal" text-decoration="none" x="600" y="300">UNREGISTERED</text><g transform="translate(-182,-174) scale(1,1)"><rect fill="#ffffff" stroke="none" x="416" y="184" width="224" height="21"/></g><g transform="translate(-182,-174) scale(1,1)"><path fill="none" stroke="#000000" d="M 416 184 L 640 184 L 640 205 L 416 205 L 416 184 Z Z" stroke-miterlimit="10" stroke-width="2"/></g><g transform="translate(-182,-174) scale(1,1)"><path fill="none" stroke="#000000" d="M 416 483 L 416 184 L 640 184 L 640 483" stroke-miterlimit="10" stroke-width="2"/></g><g transform="translate(-182,-174) scale(1,1)"><g><path fill="none" stroke="none"/><text fill="#000000" stroke="none" font-family="Arial" font-size="13px" font-style="normal" font-weight="normal" text-decoration="none" x="500.911376953125" y="201">MSEDCL</text></g></g><g transform="translate(-182,-174) scale(1,1)"><rect fill="#ffffff" stroke="none" x="640" y="184" width="224" height="21"/></g><g transform="translate(-182,-174) scale(1,1)"><path fill="none" stroke="#000000" d="M 640 184 L 864 184 L 864 205 L 640 205 L 640 184 Z Z" stroke-miterlimit="10" stroke-width="2"/></g><g transform="translate(-182,-174) scale(1,1)"><path fill="none" stroke="#000000" d="M 640 483 L 640 184 L 864 184 L 864 483" stroke-miterlimit="10" stroke-width="2"/></g><g transform="translate(-182,-174) scale(1,1)"><g><path fill="none" stroke="none"/><text fill="#000000" stroke="none" font-family="Arial" font-size="13px" font-style="normal" font-weight="normal" text-decoration="none" x="713.339599609375" y="201">Google Maps</text></g></g><g transform="translate(-182,-174) scale(1,1)"><rect fill="#ffffff" stroke="none" x="192" y="184" width="224" height="21"/></g><g transform="translate(-182,-174) scale(1,1)"><path fill="none" stroke="#000000" d="M 192 184 L 416 184 L 416 205 L 192 205 L 192 184 Z Z" stroke-miterlimit="10" stroke-width="2"/></g><g transform="translate(-182,-174) scale(1,1)"><path fill="none" stroke="#000000" d="M 192 483 L 192 184 L 416 184 L 416 483" stroke-miterlimit="10" stroke-width="2"/></g><g transform="translate(-182,-174) scale(1,1)"><g><path fill="none" stroke="none"/><text fill="#000000" stroke="none" font-family="Arial" font-size="13px" font-style="normal" font-weight="normal" text-decoration="none" x="290.2763671875" y="201">User</text></g></g><g transform="translate(-182,-174) scale(1,1)"><path fill="#C0C0C0" stroke="none" d="M 303 232.5 C 303 227.2532944 307.2532944 223 312.5 223 C 317.7467056 223 322 227.2532944 322 232.5 C 322 237.7467056 317.7467056 242 312.5 242 C 307.2532944 242 303 237.7467056 303 232.5 Z" opacity="0.2"/></g><g transform="translate(-182,-174) scale(1,1)"><path fill="#000000" stroke="none" d="M 296 225.5 C 296 220.2532944 300.2532944 216 305.5 216 C 310.7467056 216 315 220.2532944 315 225.5 C 315 230.7467056 310.7467056 235 305.5 235 C 300.2532944 235 296 230.7467056 296 225.5 Z"/></g><g transform="translate(-182,-174) scale(1,1)"><path fill="#C0C0C0" stroke="none" d="M 217 263 L 408.2490234375 263 Q 418.2490234375 263 418.2490234375 273 L 418.2490234375 293 Q 418.2490234375 303 408.2490234375 303 L 217 303 Q 207 303 207 293 L 207 273 Q 207 263 217 263 Z" opacity="0.2"/></g><g transform="translate(-182,-174) scale(1,1)"><path fill="#ffffff" stroke="none" d="M 210 256 L 401.2490234375 256 Q 411.2490234375 256 411.2490234375 266 L 411.2490234375 286 Q 411.2490234375 296 401.2490234375 296 L 210 296 Q 200 296 200 286 L 200 266 Q 200 256 210 256 Z"/></g><g transform="translate(-182,-174) scale(1,1)"><path fill="none" stroke="#000000" d="M 210 256 L 401.2490234375 256 Q 411.2490234375 256 411.2490234375 266 L 411.2490234375 286 Q 411.2490234375 296 401.2490234375 296 L 210 296 Q 200 296 200 286 L 200 266 Q 200 256 210 256 Z" stroke-miterlimit="10"/></g><g transform="translate(-182,-174) scale(1,1)"><g><path fill="none" stroke="none"/><text fill="#000000" stroke="none" font-family="Arial" font-size="13px" font-style="normal" font-weight="bold" text-decoration="none" x="219.635986328125" y="275.5">Request to toggle transformer</text></g></g><g transform="translate(-182,-174) scale(1,1)"><path fill="none" stroke="#000000" d="M 305 236 L 305 255" stroke-miterlimit="10"/></g><g transform="translate(-182,-174) scale(1,1)"><path fill="none" stroke="#000000" d="M 300.790482243984 244.83732514237585 L 305 255 L 309.209517756016 244.83732514237585" stroke-miterlimit="10"/></g><g transform="translate(-182,-174) scale(1,1)"><path fill="#C0C0C0" stroke="none" d="M 457 263 L 617.21533203125 263 Q 627.21533203125 263 627.21533203125 273 L 627.21533203125 293 Q 627.21533203125 303 617.21533203125 303 L 457 303 Q 447 303 447 293 L 447 273 Q 447 263 457 263 Z" opacity="0.2"/></g><g transform="translate(-182,-174) scale(1,1)"><path fill="#ffffff" stroke="none" d="M 450 256 L 610.21533203125 256 Q 620.21533203125 256 620.21533203125 266 L 620.21533203125 286 Q 620.21533203125 296 610.21533203125 296 L 450 296 Q 440 296 440 286 L 440 266 Q 440 256 450 256 Z"/></g><g transform="translate(-182,-174) scale(1,1)"><path fill="none" stroke="#000000" d="M 450 256 L 610.21533203125 256 Q 620.21533203125 256 620.21533203125 266 L 620.21533203125 286 Q 620.21533203125 296 610.21533203125 296 L 450 296 Q 440 296 440 286 L 440 266 Q 440 256 450 256 Z" stroke-miterlimit="10"/></g><g transform="translate(-182,-174) scale(1,1)"><g><path fill="none" stroke="none"/><text fill="#000000" stroke="none" font-family="Arial" font-size="13px" font-style="normal" font-weight="bold" text-decoration="none" x="457.5" y="275.5">Check transformer status</text></g></g><g transform="translate(-182,-174) scale(1,1)"><path fill="#C0C0C0" stroke="none" d="M 689 263 L 834.787109375 263 Q 844.787109375 263 844.787109375 273 L 844.787109375 293 Q 844.787109375 303 834.787109375 303 L 689 303 Q 679 303 679 293 L 679 273 Q 679 263 689 263 Z" opacity="0.2"/></g><g transform="translate(-182,-174) scale(1,1)"><path fill="#ffffff" stroke="none" d="M 682 256 L 827.787109375 256 Q 837.787109375 256 837.787109375 266 L 837.787109375 286 Q 837.787109375 296 827.787109375 296 L 682 296 Q 672 296 672 286 L 672 266 Q 672 256 682 256 Z"/></g><g transform="translate(-182,-174) scale(1,1)"><path fill="none" stroke="#000000" d="M 682 256 L 827.787109375 256 Q 837.787109375 256 837.787109375 266 L 837.787109375 286 Q 837.787109375 296 827.787109375 296 L 682 296 Q 672 296 672 286 L 672 266 Q 672 256 682 256 Z" stroke-miterlimit="10"/></g><g transform="translate(-182,-174) scale(1,1)"><g><path fill="none" stroke="none"/><text fill="#000000" stroke="none" font-family="Arial" font-size="13px" font-style="normal" font-weight="bold" text-decoration="none" x="682.279541015625" y="275.5">Calculate distance matrix</text></g></g><g transform="translate(-182,-174) scale(1,1)"><path fill="#C0C0C0" stroke="none" d="M 481 327 L 619.51904296875 327 Q 629.51904296875 327 629.51904296875 337 L 629.51904296875 357 Q 629.51904296875 367 619.51904296875 367 L 481 367 Q 471 367 471 357 L 471 337 Q 471 327 481 327 Z" opacity="0.2"/></g><g transform="translate(-182,-174) scale(1,1)"><path fill="#ffffff" stroke="none" d="M 474 320 L 612.51904296875 320 Q 622.51904296875 320 622.51904296875 330 L 622.51904296875 350 Q 622.51904296875 360 612.51904296875 360 L 474 360 Q 464 360 464 350 L 464 330 Q 464 320 474 320 Z"/></g><g transform="translate(-182,-174) scale(1,1)"><path fill="none" stroke="#000000" d="M 474 320 L 612.51904296875 320 Q 622.51904296875 320 622.51904296875 330 L 622.51904296875 350 Q 622.51904296875 360 612.51904296875 360 L 474 360 Q 464 360 464 350 L 464 330 Q 464 320 474 320 Z" stroke-miterlimit="10"/></g><g transform="translate(-182,-174) scale(1,1)"><g><path fill="none" stroke="none"/><text fill="#000000" stroke="none" font-family="Arial" font-size="13px" font-style="normal" font-weight="bold" text-decoration="none" x="475.333251953125" y="339.5">Disconnect all buildings</text></g></g><g transform="translate(-182,-174) scale(1,1)"><path fill="#C0C0C0" stroke="none" d="M 473 399 L 601.419921875 399 Q 611.419921875 399 611.419921875 409 L 611.419921875 429 Q 611.419921875 439 601.419921875 439 L 473 439 Q 463 439 463 429 L 463 409 Q 463 399 473 399 Z" opacity="0.2"/></g><g transform="translate(-182,-174) scale(1,1)"><path fill="#ffffff" stroke="none" d="M 466 392 L 594.419921875 392 Q 604.419921875 392 604.419921875 402 L 604.419921875 422 Q 604.419921875 432 594.419921875 432 L 466 432 Q 456 432 456 422 L 456 402 Q 456 392 466 392 Z"/></g><g transform="translate(-182,-174) scale(1,1)"><path fill="none" stroke="#000000" d="M 466 392 L 594.419921875 392 Q 604.419921875 392 604.419921875 402 L 604.419921875 422 Q 604.419921875 432 594.419921875 432 L 466 432 Q 456 432 456 422 L 456 402 Q 456 392 466 392 Z" stroke-miterlimit="10"/></g><g transform="translate(-182,-174) scale(1,1)"><g><path fill="none" stroke="none"/><text fill="#000000" stroke="none" font-family="Arial" font-size="13px" font-style="normal" font-weight="bold" text-decoration="none" x="473.852294921875" y="411.5">Calculate optimality</text></g></g><g transform="translate(-182,-174) scale(1,1)"><path fill="#C0C0C0" stroke="none" d="M 249 399 L 360.56689453125 399 Q 370.56689453125 399 370.56689453125 409 L 370.56689453125 429 Q 370.56689453125 439 360.56689453125 439 L 249 439 Q 239 439 239 429 L 239 409 Q 239 399 249 399 Z" opacity="0.2"/></g><g transform="translate(-182,-174) scale(1,1)"><path fill="#ffffff" stroke="none" d="M 242 392 L 353.56689453125 392 Q 363.56689453125 392 363.56689453125 402 L 363.56689453125 422 Q 363.56689453125 432 353.56689453125 432 L 242 432 Q 232 432 232 422 L 232 402 Q 232 392 242 392 Z"/></g><g transform="translate(-182,-174) scale(1,1)"><path fill="none" stroke="#000000" d="M 242 392 L 353.56689453125 392 Q 363.56689453125 392 363.56689453125 402 L 363.56689453125 422 Q 363.56689453125 432 353.56689453125 432 L 242 432 Q 232 432 232 422 L 232 402 Q 232 392 242 392 Z" stroke-miterlimit="10"/></g><g transform="translate(-182,-174) scale(1,1)"><g><path fill="none" stroke="none"/><text fill="#000000" stroke="none" font-family="Arial" font-size="13px" font-style="normal" font-weight="bold" text-decoration="none" x="240.81640625" y="411.5">View network graph</text></g></g><g transform="translate(-182,-174) scale(1,1)"><path fill="#C0C0C0" stroke="none" d="M 295 475.5 C 295 468.59644 300.59644 463 307.5 463 C 314.40356 463 320 468.59644 320 475.5 C 320 482.40356 314.40356 488 307.5 488 C 300.59644 488 295 482.40356 295 475.5 Z" opacity="0.2"/></g><g transform="translate(-182,-174) scale(1,1)"><path fill="none" stroke="#000000" d="M 288 468.5 C 288 461.59644 293.59644 456 300.5 456 C 307.40356 456 313 461.59644 313 468.5 C 313 475.40356 307.40356 481 300.5 481 C 293.59644 481 288 475.40356 288 468.5 Z" stroke-miterlimit="10"/></g><g transform="translate(-182,-174) scale(1,1)"><path fill="#000000" stroke="none" d="M 293 468.5 C 293 464.357864 296.357864 461 300.5 461 C 304.642136 461 308 464.357864 308 468.5 C 308 472.642136 304.642136 476 300.5 476 C 296.357864 476 293 472.642136 293 468.5 Z"/></g><g transform="translate(-182,-174) scale(1,1)"><path fill="none" stroke="#000000" d="M 412 276 L 439 276" stroke-miterlimit="10"/></g><g transform="translate(-182,-174) scale(1,1)"><path fill="none" stroke="#000000" d="M 428.83732514237585 280.209517756016 L 439 276 L 428.83732514237585 271.790482243984" stroke-miterlimit="10"/></g><g transform="translate(-182,-174) scale(1,1)"><path fill="none" stroke="#000000" d="M 621 276 L 671 276" stroke-miterlimit="10"/></g><g transform="translate(-182,-174) scale(1,1)"><path fill="none" stroke="#000000" d="M 660.8373251423759 280.209517756016 L 671 276 L 660.8373251423758 271.790482243984" stroke-miterlimit="10"/></g><g transform="translate(-182,-174) scale(1,1)"><path fill="none" stroke="#000000" d="M 685 297 L 612 319" stroke-miterlimit="10"/></g><g transform="translate(-182,-174) scale(1,1)"><path fill="none" stroke="#000000" d="M 620.5157404283736 312.03708646064285 L 612 319 L 622.9450611842225 320.0980144232323" stroke-miterlimit="10"/></g><g transform="translate(-182,-174) scale(1,1)"><path fill="none" stroke="#000000" d="M 539 361 L 534 391" stroke-miterlimit="10"/></g><g transform="translate(-182,-174) scale(1,1)"><path fill="none" stroke="#000000" d="M 531.5184907181093 380.2835588144249 L 534 391 L 539.8229761917047 381.66763972669077" stroke-miterlimit="10"/></g><g transform="translate(-182,-174) scale(1,1)"><path fill="none" stroke="#000000" d="M 455 412 L 365 412" stroke-miterlimit="10"/></g><g transform="translate(-182,-174) scale(1,1)"><path fill="none" stroke="#000000" d="M 375.16267485762415 407.790482243984 L 365 412 L 375.16267485762415 416.209517756016" stroke-miterlimit="10"/></g><g transform="translate(-182,-174) scale(1,1)"><path fill="none" stroke="#000000" d="M 298 433 L 299 455" stroke-miterlimit="10"/></g><g transform="translate(-182,-174) scale(1,1)"><path fill="none" stroke="#000000" d="M 294.33336089832187 445.0389518877435 L 299 455 L 302.74371251375516 444.6566631779511" stroke-miterlimit="10"/></g></g></svg>