<svg version="1.1" xmlns="http://www.w3.org/2000/svg" xmlns:xlink="http://www.w3.org/1999/xlink" width="612" height="836"><defs/><g><text fill="#eeeeee" stroke="none" font-family="Arial" font-size="24px" font-style="normal" font-weight="normal" text-decoration="none" x="0" y="0">UNREGISTERED</text><text fill="#eeeeee" stroke="none" font-family="Arial" font-size="24px" font-style="normal" font-weight="normal" text-decoration="none" x="0" y="30">UNREGISTERED</text><text fill="#eeeeee" stroke="none" font-family="Arial" font-size="24px" font-style="normal" font-weight="normal" text-decoration="none" x="0" y="60">UNREGISTERED</text><text fill="#eeeeee" stroke="none" font-family="Arial" font-size="24px" font-style="normal" font-weight="normal" text-decoration="none" x="0" y="90">UNREGISTERED</text><text fill="#eeeeee" stroke="none" font-family="Arial" font-size="24px" font-style="normal" font-weight="normal" text-decoration="none" x="0" y="120">UNREGISTERED</text><text fill="#eeeeee" stroke="none" font-family="Arial" font-size="24px" font-style="normal" font-weight="normal" text-decoration="none" x="0" y="150">UNREGISTERED</text><text fill="#eeeeee" stroke="none" font-family="Arial" font-size="24px" font-style="normal" font-weight="normal" text-decoration="none" x="0" y="180">UNREGISTERED</text><text fill="#eeeeee" stroke="none" font-family="Arial" font-size="24px" font-style="normal" font-weight="normal" text-decoration="none" x="0" y="210">UNREGISTERED</text><text fill="#eeeeee" stroke="none" font-family="Arial" font-size="24px" font-style="normal" font-weight="normal" text-decoration="none" x="0" y="240">UNREGISTERED</text><text fill="#eeeeee" stroke="none" font-family="Arial" font-size="24px" font-style="normal" font-weight="normal" text-decoration="none" x="0" y="270">UNREGISTERED</text><text fill="#eeeeee" stroke="none" font-family="Arial" font-size="24px" font-style="normal" font-weight="normal" text-decoration="none" x="0" y="300">UNREGISTERED</text><text fill="#eeeeee" stroke="none" font-family="Arial" font-size="24px" font-style="normal" font-weight="normal" text-decoration="none" x="0" y="330">UNREGISTERED</text><text fill="#eeeeee" stroke="none" font-family="Arial" font-size="24px" font-style="normal" font-weight="normal" text-decoration="none" x="0" y="360">UNREGISTERED</text><text fill="#eeeeee" stroke="none" font-family="Arial" font-size="24px" font-style="normal" font-weight="normal" text-decoration="none" x="0" y="390">UNREGISTERED</text><text fill="#eeeeee" stroke="none" font-family="Arial" font-size="24px" font-style="normal" font-weight="normal" text-decoration="none" x="0" y="420">UNREGISTERED</text><text fill="#eeeeee" stroke="none" font-family="Arial" font-size="24px" font-style="normal" font-weight="normal" text-decoration="none" x="0" y="450">UNREGISTERED</text><text fill="#eeeeee" stroke="none" font-family="Arial" font-size="24px" font-style="normal" font-weight="normal" text-decoration="none" x="0" y="480">UNREGISTERED</text><text fill="#eeeeee" stroke="none" font-family="Arial" font-size="24px" font-style="normal" font-weight="normal" text-decoration="none" x="0" y="510">UNREGISTERED</text><text fill="#eeeeee" stroke="none" font-family="Arial" font-size="24px" font-style="normal" font-weight="normal" text-decoration="none" x="0" y="540">UNREGISTERED</text><text fill="#eeeeee" stroke="none" font-family="Arial" font-size="24px" font-style="normal" font-weight="normal" text-decoration="none" x="0" y="570">UNREGISTERED</text><text fill="#eeeeee" stroke="none" font-family="Arial" font-size="24px" font-style="normal" font-weight="normal" text-decoration="none" x="0" y="600">UNREGISTERED</text><text fill="#eeeeee" stroke="none" font-family="Arial" font-size="24px" font-style="normal" font-weight="normal" text-decoration="none" x="0" y="630">UNREGISTERED</text><text fill="#eeeeee" stroke="none" font-family="Arial" font-size="24px" font-style="normal" font-weight="normal" text-decoration="none" x="0" y="660">UNREGISTERED</text><text fill="#eeeeee" stroke="none" font-family="Arial" font-size="24px" font-style="normal" font-weight="normal" text-decoration="none" x="0" y="690">UNREGISTERED</text><text fill="#eeeeee" stroke="none" font-family="Arial" font-size="24px" font-style="normal" font-weight="normal" text-decoration="none" x="0" y="720">UNREGISTERED</text><text fill="#eeeeee" stroke="none" font-family="Arial" font-size="24px" font-style="normal" font-weight="normal" text-decoration="none" x="0" y="750">UNREGISTERED</text><text fill="#eeeeee" stroke="none" font-family="Arial" font-size="24px" font-style="normal" font-weight="normal" text-decoration="none" x="0" y="780">UNREGISTERED</text><text fill="#eeeeee" stroke="none" font-family="Arial" font-size="24px" font-style="normal" font-weight="normal" text-decoration="none" x="0" y="810">UNREGISTERED</text><text fill="#eeeeee" stroke="none" font-family="Arial" font-size="24px" font-style="normal" font-weight="normal" text-decoration="none" x="200" y="0">UNREGISTERED</text><text fill="#eeeeee" stroke="none" font-family="Arial" font-size="24px" font-style="normal" font-weight="normal" text-decoration="none" x="200" y="30">UNREGISTERED</text><text fill="#eeeeee" stroke="none" font-family="Arial" font-size="24px" font-style="normal" font-weight="normal" text-decoration="none" x="200" y="60">UNREGISTERED</text><text fill="#eeeeee" stroke="none" font-family="Arial" font-size="24px" font-style="normal" font-weight="normal" text-decoration="none" x="200" y="90">UNREGISTERED</text><text fill="#eeeeee" stroke="none" font-family="Arial" font-size="24px" font-style="normal" font-weight="normal" text-decoration="none" x="200" y="120">UNREGISTERED</text><text fill="#eeeeee" stroke="none" font-family="Arial" font-size="24px" font-style="normal" font-weight="normal" text-decoration="none" x="200" y="150">UNREGISTERED</text><text fill="#eeeeee" stroke="none" font-family="Arial" font-size="24px" font-style="normal" font-weight="normal" text-decoration="none" x="200" y="180">UNREGISTERED</text><text fill="#eeeeee" stroke="none" font-family="Arial" font-size="24px" font-style="normal" font-weight="normal" text-decoration="none" x="200" y="210">UNREGISTERED</text><text fill="#eeeeee" stroke="none" font-family="Arial" font-size="24px" font-style="normal" font-weight="normal" text-decoration="none" x="200" y="240">UNREGISTERED</text><text fill="#eeeeee" stroke="none" font-family="Arial" font-size="24px" font-style="normal" font-weight="normal" text-decoration="none" x="200" y="270">UNREGISTERED</text><text fill="#eeeeee" stroke="none" font-family="Arial" font-size="24px" font-style="normal" font-weight="normal" text-decoration="none" x="200" y="300">UNREGISTERED</text><text fill="#eeeeee" stroke="none" font-family="Arial" font-size="24px" font-style="normal" font-weight="normal" text-decoration="none" x="200" y="330">UNREGISTERED</text><text fill="#eeeeee" stroke="none" font-family="Arial" font-size="24px" font-style="normal" font-weight="normal" text-decoration="none" x="200" y="360">UNREGISTERED</text><text fill="#eeeeee" stroke="none" font-family="Arial" font-size="24px" font-style="normal" font-weight="normal" text-decoration="none" x="200" y="390">UNREGISTERED</text><text fill="#eeeeee" stroke="none" font-family="Arial" font-size="24px" font-style="normal" font-weight="normal" text-decoration="none" x="200" y="420">UNREGISTERED</text><text fill="#eeeeee" stroke="none" font-family="Arial" font-size="24px" font-style="normal" font-weight="normal" text-decoration="none" x="200" y="450">UNREGISTERED</text><text fill="#eeeeee" stroke="none" font-family="Arial" font-size="24px" font-style="normal" font-weight="normal" text-decoration="none" x="200" y="480">UNREGISTERED</text><text fill="#eeeeee" stroke="none" font-family="Arial" font-size="24px" font-style="normal" font-weight="normal" text-decoration="none" x="200" y="510">UNREGISTERED</text><text fill="#eeeeee" stroke="none" font-family="Arial" font-size="24px" font-style="normal" font-weight="normal" text-decoration="none" x="200" y="540">UNREGISTERED</text><text fill="#eeeeee" stroke="none" font-family="Arial" font-size="24px" font-style="normal" font-weight="normal" text-decoration="none" x="200" y="570">UNREGISTERED</text><text fill="#eeeeee" stroke="none" font-family="Arial" font-size="24px" font-style="normal" font-weight="normal" text-decoration="none" x="200" y="600">UNREGISTERED</text><text fill="#eeeeee" stroke="none" font-family="Arial" font-size="24px" font-style="normal" font-weight="normal" text-decoration="none" x="200" y="630">UNREGISTERED</text><text fill="#eeeeee" stroke="none" font-family="Arial" font-size="24px" font-style="normal" font-weight="normal" text-decoration="none" x="200" y="660">UNREGISTERED</text><text fill="#eeeeee" stroke="none" font-family="Arial" font-size="24px" font-style="normal" font-weight="normal" text-decoration="none" x="200" y="690">UNREGISTERED</text><text fill="#eeeeee" stroke="none" font-family="Arial" font-size="24px" font-style="normal" font-weight="normal" text-decoration="none" x="200" y="720">UNREGISTERED</text><text fill="#eeeeee" stroke="none" font-family="Arial" font-size="24px" font-style="normal" font-weight="normal" text-decoration="none" x="200" y="750">UNREGISTERED</text><text fill="#eeeeee" stroke="none" font-family="Arial" font-size="24px" font-style="normal" font-weight="normal" text-decoration="none" x="200" y="780">UNREGISTERED</text><text fill="#eeeeee" stroke="none" font-family="Arial" font-size="24px" font-style="normal" font-weight="normal" text-decoration="none" x="200" y="810">UNREGISTERED</text><text fill="#eeeeee" stroke="none" font-family="Arial" font-size="24px" font-style="normal" font-weight="normal" text-decoration="none" x="400" y="0">UNREGISTERED</text><text fill="#eeeeee" stroke="none" font-family="Arial" font-size="24px" font-style="normal" font-weight="normal" text-decoration="none" x="400" y="30">UNREGISTERED</text><text fill="#eeeeee" stroke="none" font-family="Arial" font-size="24px" font-style="normal" font-weight="normal" text-decoration="none" x="400" y="60">UNREGISTERED</text><text fill="#eeeeee" stroke="none" font-family="Arial" font-size="24px" font-style="normal" font-weight="normal" text-decoration="none" x="400" y="90">UNREGISTERED</text><text fill="#eeeeee" stroke="none" font-family="Arial" font-size="24px" font-style="normal" font-weight="normal" text-decoration="none" x="400" y="120">UNREGISTERED</text><text fill="#eeeeee" stroke="none" font-family="Arial" font-size="24px" font-style="normal" font-weight="normal" text-decoration="none" x="400" y="150">UNREGISTERED</text><text fill="#eeeeee" stroke="none" font-family="Arial" font-size="24px" font-style="normal" font-weight="normal" text-decoration="none" x="400" y="180">UNREGISTERED</text><text fill="#eeeeee" stroke="none" font-family="Arial" font-size="24px" font-style="normal" font-weight="normal" text-decoration="none" x="400" y="210">UNREGISTERED</text><text fill="#eeeeee" stroke="none" font-family="Arial" font-size="24px" font-style="normal" font-weight="normal" text-decoration="none" x="400" y="240">UNREGISTERED</text><text fill="#eeeeee" stroke="none" font-family="Arial" font-size="24px" font-style="normal" font-weight="normal" text-decoration="none" x="400" y="270">UNREGISTERED</text><text fill="#eeeeee" stroke="none" font-family="Arial" font-size="24px" font-style="normal" font-weight="normal" text-decoration="none" x="400" y="300">UNREGISTERED</text><text fill="#eeeeee" stroke="none" font-family="Arial" font-size="24px" font-style="normal" font-weight="normal" text-decoration="none" x="400" y="330">UNREGISTERED</text><text fill="#eeeeee" stroke="none" font-family="Arial" font-size="24px" font-style="normal" font-weight="normal" text-decoration="none" x="400" y="360">UNREGISTERED</text><text fill="#eeeeee" stroke="none" font-family="Arial" font-size="24px" font-style="normal" font-weight="normal" text-decoration="none" x="400" y="390">UNREGISTERED</text><text fill="#eeeeee" stroke="none" font-family="Arial" font-size="24px" font-style="normal" font-weight="normal" text-decoration="none" x="400" y="420">UNREGISTERED</text><text fill="#eeeeee" stroke="none" font-family="Arial" font-size="24px" font-style="normal" font-weight="normal" text-decoration="none" x="400" y="450">UNREGISTERED</text><text fill="#eeeeee" stroke="none" font-family="Arial" font-size="24px" font-style="normal" font-weight="normal" text-decoration="none" x="400" y="480">UNREGISTERED</text><text fill="#eeeeee" stroke="none" font-family="Arial" font-size="24px" font-style="normal" font-weight="normal" text-decoration="none" x="400" y="510">UNREGISTERED</text><text fill="#eeeeee" stroke="none" font-family="Arial" font-size="24px" font-style="normal" font-weight="normal" text-decoration="none" x="400" y="540">UNREGISTERED</text><text fill="#eeeeee" stroke="none" font-family="Arial" font-size="24px" font-style="normal" font-weight="normal" text-decoration="none" x="400" y="570">UNREGISTERED</text><text fill="#eeeeee" stroke="none" font-family="Arial" font-size="24px" font-style="normal" font-weight="normal" text-decoration="none" x="400" y="600">UNREGISTERED</text><text fill="#eeeeee" stroke="none" font-family="Arial" font-size="24px" font-style="normal" font-weight="normal" text-decoration="none" x="400" y="630">UNREGISTERED</text><text fill="#eeeeee" stroke="none" font-family="Arial" font-size="24px" font-style="normal" font-weight="normal" text-decoration="none" x="400" y="660">UNREGISTERED</text><text fill="#eeeeee" stroke="none" font-family="Arial" font-size="24px" font-style="normal" font-weight="normal" text-decoration="none" x="400" y="690">UNREGISTERED</text><text fill="#eeeeee" stroke="none" font-family="Arial" font-size="24px" font-style="normal" font-weight="normal" text-decoration="none" x="400" y="720">UNREGISTERED</text><text fill="#eeeeee" stroke="none" font-family="Arial" font-size="24px" font-style="normal" font-weight="normal" text-decoration="none" x="400" y="750">UNREGISTERED</text><text fill="#eeeeee" stroke="none" font-family="Arial" font-size="24px" font-style="normal" font-weight="normal" text-decoration="none" x="400" y="780">UNREGISTERED</text><text fill="#eeeeee" stroke="none" font-family="Arial" font-size="24px" font-style="normal" font-weight="normal" text-decoration="none" x="400" y="810">UNREGISTERED</text><text fill="#eeeeee" stroke="none" font-family="Arial" font-size="24px" font-style="normal" font-weight="normal" text-decoration="none" x="600" y="0">UNREGISTERED</text><text fill="#eeeeee" stroke="none" font-family="Arial" font-size="24px" font-style="normal" font-weight="normal" text-decoration="none" x="600" y="30">UNREGISTERED</text><text fill="#eeeeee" stroke="none" font-family="Arial" font-size="24px" font-style="normal" font-weight="normal" text-decoration="none" x="600" y="60">UNREGISTERED</text><text fill="#eeeeee" stroke="none" font-family="Arial" font-size="24px" font-style="normal" font-weight="normal" text-decoration="none" x="600" y="90">UNREGISTERED</text><text fill="#eeeeee" stroke="none" font-family="Arial" font-size="24px" font-style="normal" font-weight="normal" text-decoration="none" x="600" y="120">UNREGISTERED</text><text fill="#eeeeee" stroke="none" font-family="Arial" font-size="24px" font-style="normal" font-weight="normal" text-decoration="none" x="600" y="150">UNREGISTERED</text><text fill="#eeeeee" stroke="none" font-family="Arial" font-size="24px" font-style="normal" font-weight="normal" text-decoration="none" x="600" y="180">UNREGISTERED</text><text fill="#eeeeee" stroke="none" font-family="Arial" font-size="24px" font-style="normal" font-weight="normal" text-decoration="none" x="600" y="210">UNREGISTERED</text><text fill="#eeeeee" stroke="none" font-family="Arial" font-size="24px" font-style="normal" font-weight="normal" text-decoration="none" x="600" y="240">UNREGISTERED</text><text fill="#eeeeee" stroke="none" font-family="Arial" font-size="24px" font-style="normal" font-weight="normal" text-decoration="none" x="600" y="270">UNREGISTERED</text><text fill="#eeeeee" stroke="none" font-family="Arial" font-size="24px" font-style="normal" font-weight="normal" text-decoration="none" x="600" y="300">UNREGISTERED</text><text fill="#eeeeee" stroke="none" font-family="Arial" font-size="24px" font-style="normal" font-weight="normal" text-decoration="none" x="600" y="330">UNREGISTERED</text><text fill="#eeeeee" stroke="none" font-family="Arial" font-size="24px" font-style="normal" font-weight="normal" text-decoration="none" x="600" y="360">UNREGISTERED</text><text fill="#eeeeee" stroke="none" font-family="Arial" font-size="24px" font-style="normal" font-weight="normal" text-decoration="none" x="600" y="390">UNREGISTERED</text><text fill="#eeeeee" stroke="none" font-family="Arial" font-size="24px" font-style="normal" font-weight="normal" text-decoration="none" x="600" y="420">UNREGISTERED</text><text fill="#eeeeee" stroke="none" font-family="Arial" font-size="24px" font-style="normal" font-weight="normal" text-decoration="none" x="600" y="450">UNREGISTERED</text><text fill="#eeeeee" stroke="none" font-family="Arial" font-size="24px" font-style="normal" font-weight="normal" text-decoration="none" x="600" y="480">UNREGISTERED</text><text fill="#eeeeee" stroke="none" font-family="Arial" font-size="24px" font-style="normal" font-weight="normal" text-decoration="none" x="600" y="510">UNREGISTERED</text><text fill="#eeeeee" stroke="none" font-family="Arial" font-size="24px" font-style="normal" font-weight="normal" text-decoration="none" x="600" y="540">UNREGISTERED</text><text fill="#eeeeee" stroke="none" font-family="Arial" font-size="24px" font-style="normal" font-weight="normal" text-decoration="none" x="600" y="570">UNREGISTERED</text><text fill="#eeeeee" stroke="none" font-family="Arial" font-size="24px" font-style="normal" font-weight="normal" text-decoration="none" x="600" y="600">UNREGISTERED</text><text fill="#eeeeee" stroke="none" font-family="Arial" font-size="24px" font-style="normal" font-weight="normal" text-decoration="none" x="600" y="630">UNREGISTERED</text><text fill="#eeeeee" stroke="none" font-family="Arial" font-size="24px" font-style="normal" font-weight="normal" text-decoration="none" x="600" y="660">UNREGISTERED</text><text fill="#eeeeee" stroke="none" font-family="Arial" font-size="24px" font-style="normal" font-weight="normal" text-decoration="none" x="600" y="690">UNREGISTERED</text><text fill="#eeeeee" stroke="none" font-family="Arial" font-size="24px" font-style="normal" font-weight="normal" text-decoration="none" x="600" y="720">UNREGISTERED</text><text fill="#eeeeee" stroke="none" font-family="Arial" font-size="24px" font-style="normal" font-weight="normal" text-decoration="none" x="600" y="750">UNREGISTERED</text><text fill="#eeeeee" stroke="none" font-family="Arial" font-size="24px" font-style="normal" font-weight="normal" text-decoration="none" x="600" y="780">UNREGISTERED</text><text fill="#eeeeee" stroke="none" font-family="Arial" font-size="24px" font-style="normal" font-weight="normal" text-decoration="none" x="600" y="810">UNREGISTERED</text><g transform="translate(-174,-174) scale(1,1)"><rect fill="#ffffff" stroke="none" x="424" y="184" width="352" height="21"/></g><g transform="translate(-174,-174) scale(1,1)"><path fill="none" stroke="#000000" d="M 424 184 L 776 184 L 776 205 L 424 205 L 424 184 Z Z" stroke-miterlimit="10" stroke-width="2"/></g><g transform="translate(-174,-174) scale(1,1)"><path fill="none" stroke="#000000" d="M 424 1000 L 424 184 L 776 184 L 776 1000" stroke-miterlimit="10" stroke-width="2"/></g><g transform="translate(-174,-174) scale(1,1)"><g><path fill="none" stroke="none"/><text fill="#000000" stroke="none" font-family="Arial" font-size="13px" font-style="normal" font-weight="normal" text-decoration="none" x="572.911376953125" y="201">MSEDCL</text></g></g><g transform="translate(-174,-174) scale(1,1)"><rect fill="#ffffff" stroke="none" x="184" y="184" width="240" height="21"/></g><g transform="translate(-174,-174) scale(1,1)"><path fill="none" stroke="#000000" d="M 184 184 L 424 184 L 424 205 L 184 205 L 184 184 Z Z" stroke-miterlimit="10" stroke-width="2"/></g><g transform="translate(-174,-174) scale(1,1)"><path fill="none" stroke="#000000" d="M 184 1000 L 184 184 L 424 184 L 424 1000" stroke-miterlimit="10" stroke-width="2"/></g><g transform="translate(-174,-174) scale(1,1)"><g><path fill="none" stroke="none"/><text fill="#000000" stroke="none" font-family="Arial" font-size="13px" font-style="normal" font-weight="normal" text-decoration="none" x="290.2763671875" y="201">User</text></g></g><g transform="translate(-174,-174) scale(1,1)"><path fill="#C0C0C0" stroke="none" d="M 303 232.5 C 303 227.2532944 307.2532944 223 312.5 223 C 317.7467056 223 322 227.2532944 322 232.5 C 322 237.7467056 317.7467056 242 312.5 242 C 307.2532944 242 303 237.7467056 303 232.5 Z" opacity="0.2"/></g><g transform="translate(-174,-174) scale(1,1)"><path fill="#000000" stroke="none" d="M 296 225.5 C 296 220.2532944 300.2532944 216 305.5 216 C 310.7467056 216 315 220.2532944 315 225.5 C 315 230.7467056 310.7467056 235 305.5 235 C 300.2532944 235 296 230.7467056 296 225.5 Z"/></g><g transform="translate(-174,-174) scale(1,1)"><path fill="#C0C0C0" stroke="none" d="M 209 263 L 406.025390625 263 Q 416.025390625 263 416.025390625 273 L 416.025390625 293 Q 416.025390625 303 406.025390625 303 L 209 303 Q 199 303 199 293 L 199 273 Q 199 263 209 263 Z" opacity="0.2"/></g><g transform="translate(-174,-174) scale(1,1)"><path fill="#ffffff" stroke="none" d="M 202 256 L 399.025390625 256 Q 409.025390625 256 409.025390625 266 L 409.025390625 286 Q 409.025390625 296 399.025390625 296 L 202 296 Q 192 296 192 286 L 192 266 Q 192 256 202 256 Z"/></g><g transform="translate(-174,-174) scale(1,1)"><path fill="none" stroke="#000000" d="M 202 256 L 399.025390625 256 Q 409.025390625 256 409.025390625 266 L 409.025390625 286 Q 409.025390625 296 399.025390625 296 L 202 296 Q 192 296 192 286 L 192 266 Q 192 256 202 256 Z" stroke-miterlimit="10"/></g><g transform="translate(-174,-174) scale(1,1)"><g><path fill="none" stroke="none"/><text fill="#000000" stroke="none" font-family="Arial" font-size="13px" font-style="normal" font-weight="bold" text-decoration="none" x="214.524169921875" y="275.5">Request to toggle transformer</text></g></g><g transform="translate(-174,-174) scale(1,1)"><path fill="none" stroke="#000000" d="M 304 236 L 302 255" stroke-miterlimit="10"/></g><g transform="translate(-174,-174) scale(1,1)"><path fill="none" stroke="#000000" d="M 298.87748906506994 244.4524919786121 L 302 255 L 307.2502657901247 245.3338368970389" stroke-miterlimit="10"/></g><g transform="translate(-174,-174) scale(1,1)"><path fill="#C0C0C0" stroke="none" d="M 537 263 L 697.21533203125 263 Q 707.21533203125 263 707.21533203125 273 L 707.21533203125 293 Q 707.21533203125 303 697.21533203125 303 L 537 303 Q 527 303 527 293 L 527 273 Q 527 263 537 263 Z" opacity="0.2"/></g><g transform="translate(-174,-174) scale(1,1)"><path fill="#ffffff" stroke="none" d="M 530 256 L 690.21533203125 256 Q 700.21533203125 256 700.21533203125 266 L 700.21533203125 286 Q 700.21533203125 296 690.21533203125 296 L 530 296 Q 520 296 520 286 L 520 266 Q 520 256 530 256 Z"/></g><g transform="translate(-174,-174) scale(1,1)"><path fill="none" stroke="#000000" d="M 530 256 L 690.21533203125 256 Q 700.21533203125 256 700.21533203125 266 L 700.21533203125 286 Q 700.21533203125 296 690.21533203125 296 L 530 296 Q 520 296 520 286 L 520 266 Q 520 256 530 256 Z" stroke-miterlimit="10"/></g><g transform="translate(-174,-174) scale(1,1)"><g><path fill="none" stroke="none"/><text fill="#000000" stroke="none" font-family="Arial" font-size="13px" font-style="normal" font-weight="bold" text-decoration="none" x="537.5" y="275.5">Check transformer status</text></g></g><g transform="translate(-174,-174) scale(1,1)"><path fill="none" stroke="#000000" d="M 410 276 L 519 276" stroke-miterlimit="10"/></g><g transform="translate(-174,-174) scale(1,1)"><path fill="none" stroke="#000000" d="M 508.83732514237585 280.209517756016 L 519 276 L 508.83732514237585 271.790482243984" stroke-miterlimit="10"/></g><g transform="translate(-174,-174) scale(1,1)"><path fill="none" stroke="#000000" d="M 610 297 L 611 335" stroke-miterlimit="10"/></g><g transform="translate(-174,-174) scale(1,1)"><path fill="none" stroke="#000000" d="M 606.5245928199677 324.9515806928197 L 611 335 L 614.9407146667412 324.7301038021151" stroke-miterlimit="10"/></g><g transform="translate(-174,-174) scale(1,1)"><path fill="none" stroke="#000000" d="M 602 355 L 538 423" stroke-miterlimit="10"/></g><g transform="translate(-174,-174) scale(1,1)"><path fill="none" stroke="#000000" d="M 541.8997677957101 412.7144853731307 L 538 423 L 548.0305093940523 418.48459511274683" stroke-miterlimit="10"/></g><g transform="translate(-174,-174) scale(1,1)"><g><path fill="none" stroke="none"/><text fill="#000000" stroke="none" font-family="Arial" font-size="13px" font-style="normal" font-weight="normal" text-decoration="none" x="571.5" y="405.5">On</text></g></g><g transform="translate(-174,-174) scale(1,1)"><path fill="none" stroke="#000000" d="M 618 355 L 663 423" stroke-miterlimit="10"/></g><g transform="translate(-174,-174) scale(1,1)"><path fill="none" stroke="#000000" d="M 653.8811036946731 416.8481116579789 L 663 423 L 660.902008549312 412.2019246218208" stroke-miterlimit="10"/></g><g transform="translate(-174,-174) scale(1,1)"><g><path fill="none" stroke="none"/><text fill="#000000" stroke="none" font-family="Arial" font-size="13px" font-style="normal" font-weight="normal" text-decoration="none" x="643.62060546875" y="386.5">Off</text></g></g><g transform="translate(-174,-174) scale(1,1)"><path fill="#C0C0C0" stroke="none" d="M 607 352.5 L 618.5 343 L 629 352.5 L 618.5 361 L 607 352.5" opacity="0.2"/></g><g transform="translate(-174,-174) scale(1,1)"><path fill="#ffffff" stroke="none" d="M 600 345 L 611 336 L 622 345 L 611 354 L 600 345"/></g><g transform="translate(-174,-174) scale(1,1)"><path fill="none" stroke="#000000" d="M 600 345 L 611 336 L 622 345 L 611 354 L 600 345 L 600 345" stroke-miterlimit="10"/></g><g transform="translate(-174,-174) scale(1,1)"><path fill="#C0C0C0" stroke="none" d="M 457 431 L 584.68359375 431 Q 594.68359375 431 594.68359375 441 L 594.68359375 474 Q 594.68359375 484 584.68359375 484 L 457 484 Q 447 484 447 474 L 447 441 Q 447 431 457 431 Z" opacity="0.2"/></g><g transform="translate(-174,-174) scale(1,1)"><path fill="#ffffff" stroke="none" d="M 450 424 L 577.68359375 424 Q 587.68359375 424 587.68359375 434 L 587.68359375 467 Q 587.68359375 477 577.68359375 477 L 450 477 Q 440 477 440 467 L 440 434 Q 440 424 450 424 Z"/></g><g transform="translate(-174,-174) scale(1,1)"><path fill="none" stroke="#000000" d="M 450 424 L 577.68359375 424 Q 587.68359375 424 587.68359375 434 L 587.68359375 467 Q 587.68359375 477 577.68359375 477 L 450 477 Q 440 477 440 467 L 440 434 Q 440 424 450 424 Z" stroke-miterlimit="10"/></g><g transform="translate(-174,-174) scale(1,1)"><g><path fill="none" stroke="none"/><text fill="#000000" stroke="none" font-family="Arial" font-size="13px" font-style="normal" font-weight="bold" text-decoration="none" x="459.661376953125" y="443.5">Switch transformer</text><text fill="#000000" stroke="none" font-family="Arial" font-size="13px" font-style="normal" font-weight="bold" text-decoration="none" x="506.732421875" y="456.5">off</text></g></g><g transform="translate(-174,-174) scale(1,1)"><path fill="#C0C0C0" stroke="none" d="M 625 431 L 751.96630859375 431 Q 761.96630859375 431 761.96630859375 441 L 761.96630859375 474 Q 761.96630859375 484 751.96630859375 484 L 625 484 Q 615 484 615 474 L 615 441 Q 615 431 625 431 Z" opacity="0.2"/></g><g transform="translate(-174,-174) scale(1,1)"><path fill="#ffffff" stroke="none" d="M 618 424 L 744.96630859375 424 Q 754.96630859375 424 754.96630859375 434 L 754.96630859375 467 Q 754.96630859375 477 744.96630859375 477 L 618 477 Q 608 477 608 467 L 608 434 Q 608 424 618 424 Z"/></g><g transform="translate(-174,-174) scale(1,1)"><path fill="none" stroke="#000000" d="M 618 424 L 744.96630859375 424 Q 754.96630859375 424 754.96630859375 434 L 754.96630859375 467 Q 754.96630859375 477 744.96630859375 477 L 618 477 Q 608 477 608 467 L 608 434 Q 608 424 618 424 Z" stroke-miterlimit="10"/></g><g transform="translate(-174,-174) scale(1,1)"><g><path fill="none" stroke="none"/><text fill="#000000" stroke="none" font-family="Arial" font-size="13px" font-style="normal" font-weight="bold" text-decoration="none" x="627.302734375" y="443.5">Switch transformer</text><text fill="#000000" stroke="none" font-family="Arial" font-size="13px" font-style="normal" font-weight="bold" text-decoration="none" x="674.253173828125" y="456.5">on</text></g></g><g transform="translate(-174,-174) scale(1,1)"><path fill="#C0C0C0" stroke="none" d="M 449 519 L 587.51904296875 519 Q 597.51904296875 519 597.51904296875 529 L 597.51904296875 562 Q 597.51904296875 572 587.51904296875 572 L 449 572 Q 439 572 439 562 L 439 529 Q 439 519 449 519 Z" opacity="0.2"/></g><g transform="translate(-174,-174) scale(1,1)"><path fill="#ffffff" stroke="none" d="M 442 512 L 580.51904296875 512 Q 590.51904296875 512 590.51904296875 522 L 590.51904296875 555 Q 590.51904296875 565 580.51904296875 565 L 442 565 Q 432 565 432 555 L 432 522 Q 432 512 442 512 Z"/></g><g transform="translate(-174,-174) scale(1,1)"><path fill="none" stroke="#000000" d="M 442 512 L 580.51904296875 512 Q 590.51904296875 512 590.51904296875 522 L 590.51904296875 555 Q 590.51904296875 565 580.51904296875 565 L 442 565 Q 432 565 432 555 L 432 522 Q 432 512 442 512 Z" stroke-miterlimit="10"/></g><g transform="translate(-174,-174) scale(1,1)"><g><path fill="none" stroke="none"/><text fill="#000000" stroke="none" font-family="Arial" font-size="13px" font-style="normal" font-weight="bold" text-decoration="none" x="470.79638671875" y="531.5">Disconnect all</text><text fill="#000000" stroke="none" font-family="Arial" font-size="13px" font-style="normal" font-weight="bold" text-decoration="none" x="485.602294921875" y="544.5">buildings</text></g></g><g transform="translate(-174,-174) scale(1,1)"><path fill="#C0C0C0" stroke="none" d="M 449 599 L 581 599 Q 591 599 591 609 L 591 642 Q 591 652 581 652 L 449 652 Q 439 652 439 642 L 439 609 Q 439 599 449 599 Z" opacity="0.2"/></g><g transform="translate(-174,-174) scale(1,1)"><path fill="#ffffff" stroke="none" d="M 442 592 L 574 592 Q 584 592 584 602 L 584 635 Q 584 645 574 645 L 442 645 Q 432 645 432 635 L 432 602 Q 432 592 442 592 Z"/></g><g transform="translate(-174,-174) scale(1,1)"><path fill="none" stroke="#000000" d="M 442 592 L 574 592 Q 584 592 584 602 L 584 635 Q 584 645 574 645 L 442 645 Q 432 645 432 635 L 432 602 Q 432 592 442 592 Z" stroke-miterlimit="10"/></g><g transform="translate(-174,-174) scale(1,1)"><g><path fill="none" stroke="none"/><text fill="#000000" stroke="none" font-family="Arial" font-size="13px" font-style="normal" font-weight="bold" text-decoration="none" x="451.642333984375" y="611.5">Calculate optimality</text><text fill="#000000" stroke="none" font-family="Arial" font-size="13px" font-style="normal" font-weight="bold" text-decoration="none" x="453.819580078125" y="624.5">for all transformers</text></g></g><g transform="translate(-174,-174) scale(1,1)"><path fill="none" stroke="#000000" d="M 512 478 L 512 511" stroke-miterlimit="10"/></g><g transform="translate(-174,-174) scale(1,1)"><path fill="none" stroke="#000000" d="M 507.790482243984 500.83732514237585 L 512 511 L 516.209517756016 500.83732514237585" stroke-miterlimit="10"/></g><g transform="translate(-174,-174) scale(1,1)"><path fill="none" stroke="#000000" d="M 510 566 L 509 591" stroke-miterlimit="10"/></g><g transform="translate(-174,-174) scale(1,1)"><path fill="none" stroke="#000000" d="M 505.20002800086905 580.6771993719814 L 509 591 L 513.6123363560042 581.0136917061868" stroke-miterlimit="10"/></g><g transform="translate(-174,-174) scale(1,1)"><path fill="none" stroke="#000000" d="M 508 646 L 508 679" stroke-miterlimit="10"/></g><g transform="translate(-174,-174) scale(1,1)"><path fill="none" stroke="#000000" d="M 503.790482243984 668.8373251423759 L 508 679 L 512.209517756016 668.8373251423759" stroke-miterlimit="10"/></g><g transform="translate(-174,-174) scale(1,1)"><path fill="#C0C0C0" stroke="none" d="M 449 687 L 581 687 Q 591 687 591 697 L 591 743 Q 591 753 581 753 L 449 753 Q 439 753 439 743 L 439 697 Q 439 687 449 687 Z" opacity="0.2"/></g><g transform="translate(-174,-174) scale(1,1)"><path fill="#ffffff" stroke="none" d="M 442 680 L 574 680 Q 584 680 584 690 L 584 736 Q 584 746 574 746 L 442 746 Q 432 746 432 736 L 432 690 Q 432 680 442 680 Z"/></g><g transform="translate(-174,-174) scale(1,1)"><path fill="none" stroke="#000000" d="M 442 680 L 574 680 Q 584 680 584 690 L 584 736 Q 584 746 574 746 L 442 746 Q 432 746 432 736 L 432 690 Q 432 680 442 680 Z" stroke-miterlimit="10"/></g><g transform="translate(-174,-174) scale(1,1)"><g><path fill="none" stroke="none"/><text fill="#000000" stroke="none" font-family="Arial" font-size="13px" font-style="normal" font-weight="bold" text-decoration="none" x="443.676025390625" y="699.5">Connect each building</text><text fill="#000000" stroke="none" font-family="Arial" font-size="13px" font-style="normal" font-weight="bold" text-decoration="none" x="453.08642578125" y="712.5">to the most optimal</text><text fill="#000000" stroke="none" font-family="Arial" font-size="13px" font-style="normal" font-weight="bold" text-decoration="none" x="474.77001953125" y="725.5">transformer</text></g></g><g transform="translate(-174,-174) scale(1,1)"><path fill="#C0C0C0" stroke="none" d="M 617 519 L 765 519 Q 775 519 775 529 L 775 562 Q 775 572 765 572 L 617 572 Q 607 572 607 562 L 607 529 Q 607 519 617 519 Z" opacity="0.2"/></g><g transform="translate(-174,-174) scale(1,1)"><path fill="#ffffff" stroke="none" d="M 610 512 L 758 512 Q 768 512 768 522 L 768 555 Q 768 565 758 565 L 610 565 Q 600 565 600 555 L 600 522 Q 600 512 610 512 Z"/></g><g transform="translate(-174,-174) scale(1,1)"><path fill="none" stroke="#000000" d="M 610 512 L 758 512 Q 768 512 768 522 L 768 555 Q 768 565 758 565 L 610 565 Q 600 565 600 555 L 600 522 Q 600 512 610 512 Z" stroke-miterlimit="10"/></g><g transform="translate(-174,-174) scale(1,1)"><g><path fill="none" stroke="none"/><text fill="#000000" stroke="none" font-family="Arial" font-size="13px" font-style="normal" font-weight="bold" text-decoration="none" x="612.096923828125" y="531.5">Find originally connected</text><text fill="#000000" stroke="none" font-family="Arial" font-size="13px" font-style="normal" font-weight="bold" text-decoration="none" x="658.3427734375" y="544.5">buildings</text></g></g><g transform="translate(-174,-174) scale(1,1)"><path fill="#C0C0C0" stroke="none" d="M 609 599 L 765 599 Q 775 599 775 609 L 775 642 Q 775 652 765 652 L 609 652 Q 599 652 599 642 L 599 609 Q 599 599 609 599 Z" opacity="0.2"/></g><g transform="translate(-174,-174) scale(1,1)"><path fill="#ffffff" stroke="none" d="M 602 592 L 758 592 Q 768 592 768 602 L 768 635 Q 768 645 758 645 L 602 645 Q 592 645 592 635 L 592 602 Q 592 592 602 592 Z"/></g><g transform="translate(-174,-174) scale(1,1)"><path fill="none" stroke="#000000" d="M 602 592 L 758 592 Q 768 592 768 602 L 768 635 Q 768 645 758 645 L 602 645 Q 592 645 592 635 L 592 602 Q 592 592 602 592 Z" stroke-miterlimit="10"/></g><g transform="translate(-174,-174) scale(1,1)"><g><path fill="none" stroke="none"/><text fill="#000000" stroke="none" font-family="Arial" font-size="13px" font-style="normal" font-weight="bold" text-decoration="none" x="621.830078125" y="611.5">Disconnect all these</text><text fill="#000000" stroke="none" font-family="Arial" font-size="13px" font-style="normal" font-weight="bold" text-decoration="none" x="654.3427734375" y="624.5">buildings</text></g></g><g transform="translate(-174,-174) scale(1,1)"><path fill="#C0C0C0" stroke="none" d="M 609 687 L 765 687 Q 775 687 775 697 L 775 730 Q 775 740 765 740 L 609 740 Q 599 740 599 730 L 599 697 Q 599 687 609 687 Z" opacity="0.2"/></g><g transform="translate(-174,-174) scale(1,1)"><path fill="#ffffff" stroke="none" d="M 602 680 L 758 680 Q 768 680 768 690 L 768 723 Q 768 733 758 733 L 602 733 Q 592 733 592 723 L 592 690 Q 592 680 602 680 Z"/></g><g transform="translate(-174,-174) scale(1,1)"><path fill="none" stroke="#000000" d="M 602 680 L 758 680 Q 768 680 768 690 L 768 723 Q 768 733 758 733 L 602 733 Q 592 733 592 723 L 592 690 Q 592 680 602 680 Z" stroke-miterlimit="10"/></g><g transform="translate(-174,-174) scale(1,1)"><g><path fill="none" stroke="none"/><text fill="#000000" stroke="none" font-family="Arial" font-size="13px" font-style="normal" font-weight="bold" text-decoration="none" x="634.477783203125" y="699.5">Restore original</text><text fill="#000000" stroke="none" font-family="Arial" font-size="13px" font-style="normal" font-weight="bold" text-decoration="none" x="645.31005859375" y="712.5">connections</text></g></g><g transform="translate(-174,-174) scale(1,1)"><path fill="none" stroke="#000000" d="M 682 478 L 683 511" stroke-miterlimit="10"/></g><g transform="translate(-174,-174) scale(1,1)"><path fill="none" stroke="#000000" d="M 678.4845951127468 500.9694906059478 L 683 511 L 686.8997677957101 500.7144853731307" stroke-miterlimit="10"/></g><g transform="translate(-174,-174) scale(1,1)"><path fill="none" stroke="#000000" d="M 683 566 L 681 591" stroke-miterlimit="10"/></g><g transform="translate(-174,-174) scale(1,1)"><path fill="none" stroke="#000000" d="M 677.6143131510441 580.5340015019681 L 681 591 L 686.0065363799758 581.2053793602826" stroke-miterlimit="10"/></g><g transform="translate(-174,-174) scale(1,1)"><path fill="none" stroke="#000000" d="M 680 646 L 680 679" stroke-miterlimit="10"/></g><g transform="translate(-174,-174) scale(1,1)"><path fill="none" stroke="#000000" d="M 675.790482243984 668.8373251423759 L 680 679 L 684.209517756016 668.8373251423759" stroke-miterlimit="10"/></g><g transform="translate(-174,-174) scale(1,1)"><path fill="#C0C0C0" stroke="none" d="M 599 808.5 L 610.5 799 L 621 808.5 L 610.5 817 L 599 808.5" opacity="0.2"/></g><g transform="translate(-174,-174) scale(1,1)"><path fill="#ffffff" stroke="none" d="M 592 801 L 603 792 L 614 801 L 603 810 L 592 801"/></g><g transform="translate(-174,-174) scale(1,1)"><path fill="none" stroke="#000000" d="M 592 801 L 603 792 L 614 801 L 603 810 L 592 801 L 592 801" stroke-miterlimit="10"/></g><g transform="translate(-174,-174) scale(1,1)"><path fill="none" stroke="#000000" d="M 657 734 L 611 791" stroke-miterlimit="10"/></g><g transform="translate(-174,-174) scale(1,1)"><path fill="none" stroke="#000000" d="M 614.1065182174483 780.4477706353273 L 611 791 L 620.6581930378331 785.7350871570413" stroke-miterlimit="10"/></g><g transform="translate(-174,-174) scale(1,1)"><path fill="none" stroke="#000000" d="M 545 747 L 592 791" stroke-miterlimit="10"/></g><g transform="translate(-174,-174) scale(1,1)"><path fill="none" stroke="#000000" d="M 581.7041432110236 787.1276192102417 L 592 791 L 587.4579165621639 780.9815431306147" stroke-miterlimit="10"/></g><g transform="translate(-174,-174) scale(1,1)"><path fill="#C0C0C0" stroke="none" d="M 545 863 L 673.419921875 863 Q 683.419921875 863 683.419921875 873 L 683.419921875 906 Q 683.419921875 916 673.419921875 916 L 545 916 Q 535 916 535 906 L 535 873 Q 535 863 545 863 Z" opacity="0.2"/></g><g transform="translate(-174,-174) scale(1,1)"><path fill="#ffffff" stroke="none" d="M 538 856 L 666.419921875 856 Q 676.419921875 856 676.419921875 866 L 676.419921875 899 Q 676.419921875 909 666.419921875 909 L 538 909 Q 528 909 528 899 L 528 866 Q 528 856 538 856 Z"/></g><g transform="translate(-174,-174) scale(1,1)"><path fill="none" stroke="#000000" d="M 538 856 L 666.419921875 856 Q 676.419921875 856 676.419921875 866 L 676.419921875 899 Q 676.419921875 909 666.419921875 909 L 538 909 Q 528 909 528 899 L 528 866 Q 528 856 538 856 Z" stroke-miterlimit="10"/></g><g transform="translate(-174,-174) scale(1,1)"><g><path fill="none" stroke="none"/><text fill="#000000" stroke="none" font-family="Arial" font-size="13px" font-style="normal" font-weight="bold" text-decoration="none" x="556.332275390625" y="875.5">Display network</text><text fill="#000000" stroke="none" font-family="Arial" font-size="13px" font-style="normal" font-weight="bold" text-decoration="none" x="585.58544921875" y="888.5">graph</text></g></g><g transform="translate(-174,-174) scale(1,1)"><path fill="#C0C0C0" stroke="none" d="M 257 871 L 368.56689453125 871 Q 378.56689453125 871 378.56689453125 881 L 378.56689453125 914 Q 378.56689453125 924 368.56689453125 924 L 257 924 Q 247 924 247 914 L 247 881 Q 247 871 257 871 Z" opacity="0.2"/></g><g transform="translate(-174,-174) scale(1,1)"><path fill="#ffffff" stroke="none" d="M 250 864 L 361.56689453125 864 Q 371.56689453125 864 371.56689453125 874 L 371.56689453125 907 Q 371.56689453125 917 361.56689453125 917 L 250 917 Q 240 917 240 907 L 240 874 Q 240 864 250 864 Z"/></g><g transform="translate(-174,-174) scale(1,1)"><path fill="none" stroke="#000000" d="M 250 864 L 361.56689453125 864 Q 371.56689453125 864 371.56689453125 874 L 371.56689453125 907 Q 371.56689453125 917 361.56689453125 917 L 250 917 Q 240 917 240 907 L 240 874 Q 240 864 250 864 Z" stroke-miterlimit="10"/></g><g transform="translate(-174,-174) scale(1,1)"><g><path fill="none" stroke="none"/><text fill="#000000" stroke="none" font-family="Arial" font-size="13px" font-style="normal" font-weight="bold" text-decoration="none" x="267.246826171875" y="883.5">View network</text><text fill="#000000" stroke="none" font-family="Arial" font-size="13px" font-style="normal" font-weight="bold" text-decoration="none" x="289.158935546875" y="896.5">graph</text></g></g><g transform="translate(-174,-174) scale(1,1)"><path fill="#C0C0C0" stroke="none" d="M 295 971.5 C 295 964.59644 300.59644 959 307.5 959 C 314.40356 959 320 964.59644 320 971.5 C 320 978.40356 314.40356 984 307.5 984 C 300.59644 984 295 978.40356 295 971.5 Z" opacity="0.2"/></g><g transform="translate(-174,-174) scale(1,1)"><path fill="none" stroke="#000000" d="M 288 964.5 C 288 957.59644 293.59644 952 300.5 952 C 307.40356 952 313 957.59644 313 964.5 C 313 971.40356 307.40356 977 300.5 977 C 293.59644 977 288 971.40356 288 964.5 Z" stroke-miterlimit="10"/></g><g transform="translate(-174,-174) scale(1,1)"><path fill="#000000" stroke="none" d="M 293 964.5 C 293 960.357864 296.357864 957 300.5 957 C 304.642136 957 308 960.357864 308 964.5 C 308 968.642136 304.642136 972 300.5 972 C 296.357864 972 293 968.642136 293 964.5 Z"/></g><g transform="translate(-174,-174) scale(1,1)"><path fill="none" stroke="#000000" d="M 527 884 L 373 888" stroke-miterlimit="10"/></g><g transform="translate(-174,-174) scale(1,1)"><path fill="none" stroke="#000000" d="M 383.0499472071122 883.5280249179744 L 373 888 L 383.26854972651336 891.9442219149183" stroke-miterlimit="10"/></g><g transform="translate(-174,-174) scale(1,1)"><path fill="none" stroke="#000000" d="M 603 811 L 602 855" stroke-miterlimit="10"/></g><g transform="translate(-174,-174) scale(1,1)"><path fill="none" stroke="#000000" d="M 598.0224792467553 844.7443026245161 L 602 855 L 606.4393412630723 844.9355949430687" stroke-miterlimit="10"/></g><g transform="translate(-174,-174) scale(1,1)"><path fill="none" stroke="#000000" d="M 303 918 L 301 951" stroke-miterlimit="10"/></g><g transform="translate(-174,-174) scale(1,1)"><path fill="none" stroke="#000000" d="M 297.41298361929194 940.6012830847006 L 301 951 L 305.81659963942155 941.1105931465268" stroke-miterlimit="10"/></g></g></svg>