<svg version="1.1" xmlns="http://www.w3.org/2000/svg" xmlns:xlink="http://www.w3.org/1999/xlink" width="615.0908203125" height="716"><defs/><g><text fill="#eeeeee" stroke="none" font-family="Arial" font-size="24px" font-style="normal" font-weight="normal" text-decoration="none" x="0" y="0">UNREGISTERED</text><text fill="#eeeeee" stroke="none" font-family="Arial" font-size="24px" font-style="normal" font-weight="normal" text-decoration="none" x="0" y="30">UNREGISTERED</text><text fill="#eeeeee" stroke="none" font-family="Arial" font-size="24px" font-style="normal" font-weight="normal" text-decoration="none" x="0" y="60">UNREGISTERED</text><text fill="#eeeeee" stroke="none" font-family="Arial" font-size="24px" font-style="normal" font-weight="normal" text-decoration="none" x="0" y="90">UNREGISTERED</text><text fill="#eeeeee" stroke="none" font-family="Arial" font-size="24px" font-style="normal" font-weight="normal" text-decoration="none" x="0" y="120">UNREGISTERED</text><text fill="#eeeeee" stroke="none" font-family="Arial" font-size="24px" font-style="normal" font-weight="normal" text-decoration="none" x="0" y="150">UNREGISTERED</text><text fill="#eeeeee" stroke="none" font-family="Arial" font-size="24px" font-style="normal" font-weight="normal" text-decoration="none" x="0" y="180">UNREGISTERED</text><text fill="#eeeeee" stroke="none" font-family="Arial" font-size="24px" font-style="normal" font-weight="normal" text-decoration="none" x="0" y="210">UNREGISTERED</text><text fill="#eeeeee" stroke="none" font-family="Arial" font-size="24px" font-style="normal" font-weight="normal" text-decoration="none" x="0" y="240">UNREGISTERED</text><text fill="#eeeeee" stroke="none" font-family="Arial" font-size="24px" font-style="normal" font-weight="normal" text-decoration="none" x="0" y="270">UNREGISTERED</text><text fill="#eeeeee" stroke="none" font-family="Arial" font-size="24px" font-style="normal" font-weight="normal" text-decoration="none" x="0" y="300">UNREGISTERED</text><text fill="#eeeeee" stroke="none" font-family="Arial" font-size="24px" font-style="normal" font-weight="normal" text-decoration="none" x="0" y="330">UNREGISTERED</text><text fill="#eeeeee" stroke="none" font-family="Arial" font-size="24px" font-style="normal" font-weight="normal" text-decoration="none" x="0" y="360">UNREGISTERED</text><text fill="#eeeeee" stroke="none" font-family="Arial" font-size="24px" font-style="normal" font-weight="normal" text-decoration="none" x="0" y="390">UNREGISTERED</text><text fill="#eeeeee" stroke="none" font-family="Arial" font-size="24px" font-style="normal" font-weight="normal" text-decoration="none" x="0" y="420">UNREGISTERED</text><text fill="#eeeeee" stroke="none" font-family="Arial" font-size="24px" font-style="normal" font-weight="normal" text-decoration="none" x="0" y="450">UNREGISTERED</text><text fill="#eeeeee" stroke="none" font-family="Arial" font-size="24px" font-style="normal" font-weight="normal" text-decoration="none" x="0" y="480">UNREGISTERED</text><text fill="#eeeeee" stroke="none" font-family="Arial" font-size="24px" font-style="normal" font-weight="normal" text-decoration="none" x="0" y="510">UNREGISTERED</text><text fill="#eeeeee" stroke="none" font-family="Arial" font-size="24px" font-style="normal" font-weight="normal" text-decoration="none" x="0" y="540">UNREGISTERED</text><text fill="#eeeeee" stroke="none" font-family="Arial" font-size="24px" font-style="normal" font-weight="normal" text-decoration="none" x="0" y="570">UNREGISTERED</text><text fill="#eeeeee" stroke="none" font-family="Arial" font-size="24px" font-style="normal" font-weight="normal" text-decoration="none" x="0" y="600">UNREGISTERED</text><text fill="#eeeeee" stroke="none" font-family="Arial" font-size="24px" font-style="normal" font-weight="normal" text-decoration="none" x="0" y="630">UNREGISTERED</text><text fill="#eeeeee" stroke="none" font-family="Arial" font-size="24px" font-style="normal" font-weight="normal" text-decoration="none" x="0" y="660">UNREGISTERED</text><text fill="#eeeeee" stroke="none" font-family="Arial" font-size="24px" font-style="normal" font-weight="normal" text-decoration="none" x="0" y="690">UNREGISTERED</text><text fill="#eeeeee" stroke="none" font-family="Arial" font-size="24px" font-style="normal" font-weight="normal" text-decoration="none" x="200" y="0">UNREGISTERED</text><text fill="#eeeeee" stroke="none" font-family="Arial" font-size="24px" font-style="normal" font-weight="normal" text-decoration="none" x="200" y="30">UNREGISTERED</text><text fill="#eeeeee" stroke="none" font-family="Arial" font-size="24px" font-style="normal" font-weight="normal" text-decoration="none" x="200" y="60">UNREGISTERED</text><text fill="#eeeeee" stroke="none" font-family="Arial" font-size="24px" font-style="normal" font-weight="normal" text-decoration="none" x="200" y="90">UNREGISTERED</text><text fill="#eeeeee" stroke="none" font-family="Arial" font-size="24px" font-style="normal" font-weight="normal" text-decoration="none" x="200" y="120">UNREGISTERED</text><text fill="#eeeeee" stroke="none" font-family="Arial" font-size="24px" font-style="normal" font-weight="normal" text-decoration="none" x="200" y="150">UNREGISTERED</text><text fill="#eeeeee" stroke="none" font-family="Arial" font-size="24px" font-style="normal" font-weight="normal" text-decoration="none" x="200" y="180">UNREGISTERED</text><text fill="#eeeeee" stroke="none" font-family="Arial" font-size="24px" font-style="normal" font-weight="normal" text-decoration="none" x="200" y="210">UNREGISTERED</text><text fill="#eeeeee" stroke="none" font-family="Arial" font-size="24px" font-style="normal" font-weight="normal" text-decoration="none" x="200" y="240">UNREGISTERED</text><text fill="#eeeeee" stroke="none" font-family="Arial" font-size="24px" font-style="normal" font-weight="normal" text-decoration="none" x="200" y="270">UNREGISTERED</text><text fill="#eeeeee" stroke="none" font-family="Arial" font-size="24px" font-style="normal" font-weight="normal" text-decoration="none" x="200" y="300">UNREGISTERED</text><text fill="#eeeeee" stroke="none" font-family="Arial" font-size="24px" font-style="normal" font-weight="normal" text-decoration="none" x="200" y="330">UNREGISTERED</text><text fill="#eeeeee" stroke="none" font-family="Arial" font-size="24px" font-style="normal" font-weight="normal" text-decoration="none" x="200" y="360">UNREGISTERED</text><text fill="#eeeeee" stroke="none" font-family="Arial" font-size="24px" font-style="normal" font-weight="normal" text-decoration="none" x="200" y="390">UNREGISTERED</text><text fill="#eeeeee" stroke="none" font-family="Arial" font-size="24px" font-style="normal" font-weight="normal" text-decoration="none" x="200" y="420">UNREGISTERED</text><text fill="#eeeeee" stroke="none" font-family="Arial" font-size="24px" font-style="normal" font-weight="normal" text-decoration="none" x="200" y="450">UNREGISTERED</text><text fill="#eeeeee" stroke="none" font-family="Arial" font-size="24px" font-style="normal" font-weight="normal" text-decoration="none" x="200" y="480">UNREGISTERED</text><text fill="#eeeeee" stroke="none" font-family="Arial" font-size="24px" font-style="normal" font-weight="normal" text-decoration="none" x="200" y="510">UNREGISTERED</text><text fill="#eeeeee" stroke="none" font-family="Arial" font-size="24px" font-style="normal" font-weight="normal" text-decoration="none" x="200" y="540">UNREGISTERED</text><text fill="#eeeeee" stroke="none" font-family="Arial" font-size="24px" font-style="normal" font-weight="normal" text-decoration="none" x="200" y="570">UNREGISTERED</text><text fill="#eeeeee" stroke="none" font-family="Arial" font-size="24px" font-style="normal" font-weight="normal" text-decoration="none" x="200" y="600">UNREGISTERED</text><text fill="#eeeeee" stroke="none" font-family="Arial" font-size="24px" font-style="normal" font-weight="normal" text-decoration="none" x="200" y="630">UNREGISTERED</text><text fill="#eeeeee" stroke="none" font-family="Arial" font-size="24px" font-style="normal" font-weight="normal" text-decoration="none" x="200" y="660">UNREGISTERED</text><text fill="#eeeeee" stroke="none" font-family="Arial" font-size="24px" font-style="normal" font-weight="normal" text-decoration="none" x="200" y="690">UNREGISTERED</text><text fill="#eeeeee" stroke="none" font-family="Arial" font-size="24px" font-style="normal" font-weight="normal" text-decoration="none" x="400" y="0">UNREGISTERED</text><text fill="#eeeeee" stroke="none" font-family="Arial" font-size="24px" font-style="normal" font-weight="normal" text-decoration="none" x="400" y="30">UNREGISTERED</text><text fill="#eeeeee" stroke="none" font-family="Arial" font-size="24px" font-style="normal" font-weight="normal" text-decoration="none" x="400" y="60">UNREGISTERED</text><text fill="#eeeeee" stroke="none" font-family="Arial" font-size="24px" font-style="normal" font-weight="normal" text-decoration="none" x="400" y="90">UNREGISTERED</text><text fill="#eeeeee" stroke="none" font-family="Arial" font-size="24px" font-style="normal" font-weight="normal" text-decoration="none" x="400" y="120">UNREGISTERED</text><text fill="#eeeeee" stroke="none" font-family="Arial" font-size="24px" font-style="normal" font-weight="normal" text-decoration="none" x="400" y="150">UNREGISTERED</text><text fill="#eeeeee" stroke="none" font-family="Arial" font-size="24px" font-style="normal" font-weight="normal" text-decoration="none" x="400" y="180">UNREGISTERED</text><text fill="#eeeeee" stroke="none" font-family="Arial" font-size="24px" font-style="normal" font-weight="normal" text-decoration="none" x="400" y="210">UNREGISTERED</text><text fill="#eeeeee" stroke="none" font-family="Arial" font-size="24px" font-style="normal" font-weight="normal" text-decoration="none" x="400" y="240">UNREGISTERED</text><text fill="#eeeeee" stroke="none" font-family="Arial" font-size="24px" font-style="normal" font-weight="normal" text-decoration="none" x="400" y="270">UNREGISTERED</text><text fill="#eeeeee" stroke="none" font-family="Arial" font-size="24px" font-style="normal" font-weight="normal" text-decoration="none" x="400" y="300">UNREGISTERED</text><text fill="#eeeeee" stroke="none" font-family="Arial" font-size="24px" font-style="normal" font-weight="normal" text-decoration="none" x="400" y="330">UNREGISTERED</text><text fill="#eeeeee" stroke="none" font-family="Arial" font-size="24px" font-style="normal" font-weight="normal" text-decoration="none" x="400" y="360">UNREGISTERED</text><text fill="#eeeeee" stroke="none" font-family="Arial" font-size="24px" font-style="normal" font-weight="normal" text-decoration="none" x="400" y="390">UNREGISTERED</text><text fill="#eeeeee" stroke="none" font-family="Arial" font-size="24px" font-style="normal" font-weight="normal" text-decoration="none" x="400" y="420">UNREGISTERED</text><text fill="#eeeeee" stroke="none" font-family="Arial" font-size="24px" font-style="normal" font-weight="normal" text-decoration="none" x="400" y="450">UNREGISTERED</text><text fill="#eeeeee" stroke="none" font-family="Arial" font-size="24px" font-style="normal" font-weight="normal" text-decoration="none" x="400" y="480">UNREGISTERED</text><text fill="#eeeeee" stroke="none" font-family="Arial" font-size="24px" font-style="normal" font-weight="normal" text-decoration="none" x="400" y="510">UNREGISTERED</text><text fill="#eeeeee" stroke="none" font-family="Arial" font-size="24px" font-style="normal" font-weight="normal" text-decoration="none" x="400" y="540">UNREGISTERED</text><text fill="#eeeeee" stroke="none" font-family="Arial" font-size="24px" font-style="normal" font-weight="normal" text-decoration="none" x="400" y="570">UNREGISTERED</text><text fill="#eeeeee" stroke="none" font-family="Arial" font-size="24px" font-style="normal" font-weight="normal" text-decoration="none" x="400" y="600">UNREGISTERED</text><text fill="#eeeeee" stroke="none" font-family="Arial" font-size="24px" font-style="normal" font-weight="normal" text-decoration="none" x="400" y="630">UNREGISTERED</text><text fill="#eeeeee" stroke="none" font-family="Arial" font-size="24px" font-style="normal" font-weight="normal" text-decoration="none" x="400" y="660">UNREGISTERED</text><text fill="#eeeeee" stroke="none" font-family="Arial" font-size="24px" font-style="normal" font-weight="normal" text-decoration="none" x="400" y="690">UNREGISTERED</text><text fill="#eeeeee" stroke="none" font-family="Arial" font-size="24px" font-style="normal" font-weight="normal" text-decoration="none" x="600" y="0">UNREGISTERED</text><text fill="#eeeeee" stroke="none" font-family="Arial" font-size="24px" font-style="normal" font-weight="normal" text-decoration="none" x="600" y="30">UNREGISTERED</text><text fill="#eeeeee" stroke="none" font-family="Arial" font-size="24px" font-style="normal" font-weight="normal" text-decoration="none" x="600" y="60">UNREGISTERED</text><text fill="#eeeeee" stroke="none" font-family="Arial" font-size="24px" font-style="normal" font-weight="normal" text-decoration="none" x="600" y="90">UNREGISTERED</text><text fill="#eeeeee" stroke="none" font-family="Arial" font-size="24px" font-style="normal" font-weight="normal" text-decoration="none" x="600" y="120">UNREGISTERED</text><text fill="#eeeeee" stroke="none" font-family="Arial" font-size="24px" font-style="normal" font-weight="normal" text-decoration="none" x="600" y="150">UNREGISTERED</text><text fill="#eeeeee" stroke="none" font-family="Arial" font-size="24px" font-style="normal" font-weight="normal" text-decoration="none" x="600" y="180">UNREGISTERED</text><text fill="#eeeeee" stroke="none" font-family="Arial" font-size="24px" font-style="normal" font-weight="normal" text-decoration="none" x="600" y="210">UNREGISTERED</text><text fill="#eeeeee" stroke="none" font-family="Arial" font-size="24px" font-style="normal" font-weight="normal" text-decoration="none" x="600" y="240">UNREGISTERED</text><text fill="#eeeeee" stroke="none" font-family="Arial" font-size="24px" font-style="normal" font-weight="normal" text-decoration="none" x="600" y="270">UNREGISTERED</text><text fill="#eeeeee" stroke="none" font-family="Arial" font-size="24px" font-style="normal" font-weight="normal" text-decoration="none" x="600" y="300">UNREGISTERED</text><text fill="#eeeeee" stroke="none" font-family="Arial" font-size="24px" font-style="normal" font-weight="normal" text-decoration="none" x="600" y="330">UNREGISTERED</text><text fill="#eeeeee" stroke="none" font-family="Arial" font-size="24px" font-style="normal" font-weight="normal" text-decoration="none" x="600" y="360">UNREGISTERED</text><text fill="#eeeeee" stroke="none" font-family="Arial" font-size="24px" font-style="normal" font-weight="normal" text-decoration="none" x="600" y="390">UNREGISTERED</text><text fill="#eeeeee" stroke="none" font-family="Arial" font-size="24px" font-style="normal" font-weight="normal" text-decoration="none" x="600" y="420">UNREGISTERED</text><text fill="#eeeeee" stroke="none" font-family="Arial" font-size="24px" font-style="normal" font-weight="normal" text-decoration="none" x="600" y="450">UNREGISTERED</text><text fill="#eeeeee" stroke="none" font-family="Arial" font-size="24px" font-style="normal" font-weight="normal" text-decoration="none" x="600" y="480">UNREGISTERED</text><text fill="#eeeeee" stroke="none" font-family="Arial" font-size="24px" font-style="normal" font-weight="normal" text-decoration="none" x="600" y="510">UNREGISTERED</text><text fill="#eeeeee" stroke="none" font-family="Arial" font-size="24px" font-style="normal" font-weight="normal" text-decoration="none" x="600" y="540">UNREGISTERED</text><text fill="#eeeeee" stroke="none" font-family="Arial" font-size="24px" font-style="normal" font-weight="normal" text-decoration="none" x="600" y="570">UNREGISTERED</text><text fill="#eeeeee" stroke="none" font-family="Arial" font-size="24px" font-style="normal" font-weight="normal" text-decoration="none" x="600" y="600">UNREGISTERED</text><text fill="#eeeeee" stroke="none" font-family="Arial" font-size="24px" font-style="normal" font-weight="normal" text-decoration="none" x="600" y="630">UNREGISTERED</text><text fill="#eeeeee" stroke="none" font-family="Arial" font-size="24px" font-style="normal" font-weight="normal" text-decoration="none" x="600" y="660">UNREGISTERED</text><text fill="#eeeeee" stroke="none" font-family="Arial" font-size="24px" font-style="normal" font-weight="normal" text-decoration="none" x="600" y="690">UNREGISTERED</text><g transform="translate(2,-62) scale(1,1)"><rect fill="#ffffff" stroke="none" x="8" y="72" width="336" height="21"/></g><g transform="translate(2,-62) scale(1,1)"><path fill="none" stroke="#000000" d="M 8 72 L 344 72 L 344 93 L 8 93 L 8 72 Z Z" stroke-miterlimit="10" stroke-width="2"/></g><g transform="translate(2,-62) scale(1,1)"><path fill="none" stroke="#000000" d="M 8 768 L 8 72 L 344 72 L 344 768" stroke-miterlimit="10" stroke-width="2"/></g><g transform="translate(2,-62) scale(1,1)"><g><path fill="none" stroke="none"/><text fill="#000000" stroke="none" font-family="Arial" font-size="13px" font-style="normal" font-weight="normal" text-decoration="none" x="137.7109375" y="89">Administrator</text></g></g><g transform="translate(2,-62) scale(1,1)"><rect fill="#ffffff" stroke="none" x="344" y="72" width="259.0908203125" height="21"/></g><g transform="translate(2,-62) scale(1,1)"><path fill="none" stroke="#000000" d="M 344 72 L 603.0908203125 72 L 603.0908203125 93 L 344 93 L 344 72 Z Z" stroke-miterlimit="10" stroke-width="2"/></g><g transform="translate(2,-62) scale(1,1)"><path fill="none" stroke="#000000" d="M 344 768 L 344 72 L 603.0908203125 72 L 603.0908203125 768" stroke-miterlimit="10" stroke-width="2"/></g><g transform="translate(2,-62) scale(1,1)"><g><path fill="none" stroke="none"/><text fill="#000000" stroke="none" font-family="Arial" font-size="13px" font-style="normal" font-weight="normal" text-decoration="none" x="446.456787109375" y="89">MSEDCL</text></g></g><g transform="translate(2,-62) scale(1,1)"><path fill="#C0C0C0" stroke="none" d="M 145 159 L 226.45361328125 159 Q 236.45361328125 159 236.45361328125 169 L 236.45361328125 215 Q 236.45361328125 225 226.45361328125 225 L 145 225 Q 135 225 135 215 L 135 169 Q 135 159 145 159 Z" opacity="0.2"/></g><g transform="translate(2,-62) scale(1,1)"><path fill="#ffffff" stroke="none" d="M 138 152 L 219.45361328125 152 Q 229.45361328125 152 229.45361328125 162 L 229.45361328125 208 Q 229.45361328125 218 219.45361328125 218 L 138 218 Q 128 218 128 208 L 128 162 Q 128 152 138 152 Z"/></g><g transform="translate(2,-62) scale(1,1)"><path fill="none" stroke="#000000" d="M 138 152 L 219.45361328125 152 Q 229.45361328125 152 229.45361328125 162 L 229.45361328125 208 Q 229.45361328125 218 219.45361328125 218 L 138 218 Q 128 218 128 208 L 128 162 Q 128 152 138 152 Z" stroke-miterlimit="10"/></g><g transform="translate(2,-62) scale(1,1)"><g><path fill="none" stroke="none"/><text fill="#000000" stroke="none" font-family="Arial" font-size="13px" font-style="normal" font-weight="bold" text-decoration="none" x="147.2900390625" y="171.5">Request to</text><text fill="#000000" stroke="none" font-family="Arial" font-size="13px" font-style="normal" font-weight="bold" text-decoration="none" x="168.246826171875" y="184.5">edit</text><text fill="#000000" stroke="none" font-family="Arial" font-size="13px" font-style="normal" font-weight="bold" text-decoration="none" x="145.496826171875" y="197.5">transformer</text></g></g><g transform="translate(2,-62) scale(1,1)"><path fill="none" stroke="#000000" d="M 177 124 L 178 151" stroke-miterlimit="10"/></g><g transform="translate(2,-62) scale(1,1)"><path fill="none" stroke="#000000" d="M 173.41722899170594 141.0000895061236 L 178 151 L 181.83049606488868 140.68848702193162" stroke-miterlimit="10"/></g><g transform="translate(2,-62) scale(1,1)"><path fill="none" stroke="#000000" d="M 175 403 L 110 455" stroke-miterlimit="10"/></g><g transform="translate(2,-62) scale(1,1)"><path fill="none" stroke="#000000" d="M 115.30605092205398 445.36434622806684 L 110 455 L 120.56538071160519 451.93850846500584" stroke-miterlimit="10"/></g><g transform="translate(2,-62) scale(1,1)"><g><path fill="none" stroke="none"/><text fill="#000000" stroke="none" font-family="Arial" font-size="13px" font-style="normal" font-weight="normal" text-decoration="none" x="139.5" y="446.5">Add</text></g></g><g transform="translate(2,-62) scale(1,1)"><path fill="#C0C0C0" stroke="none" d="M 175 120.5 C 175 115.2532944 179.2532944 111 184.5 111 C 189.7467056 111 194 115.2532944 194 120.5 C 194 125.7467056 189.7467056 130 184.5 130 C 179.2532944 130 175 125.7467056 175 120.5 Z" opacity="0.2"/></g><g transform="translate(2,-62) scale(1,1)"><path fill="#000000" stroke="none" d="M 168 113.5 C 168 108.2532944 172.2532944 104 177.5 104 C 182.7467056 104 187 108.2532944 187 113.5 C 187 118.7467056 182.7467056 123 177.5 123 C 172.2532944 123 168 118.7467056 168 113.5 Z"/></g><g transform="translate(2,-62) scale(1,1)"><path fill="#C0C0C0" stroke="none" d="M 183 400.5 L 194.5 391 L 205 400.5 L 194.5 409 L 183 400.5" opacity="0.2"/></g><g transform="translate(2,-62) scale(1,1)"><path fill="#ffffff" stroke="none" d="M 176 393 L 187 384 L 198 393 L 187 402 L 176 393"/></g><g transform="translate(2,-62) scale(1,1)"><path fill="none" stroke="#000000" d="M 176 393 L 187 384 L 198 393 L 187 402 L 176 393 L 176 393" stroke-miterlimit="10"/></g><g transform="translate(2,-62) scale(1,1)"><path fill="#C0C0C0" stroke="none" d="M 33 463 L 117 463 Q 127 463 127 473 L 127 519 Q 127 529 117 529 L 33 529 Q 23 529 23 519 L 23 473 Q 23 463 33 463 Z" opacity="0.2"/></g><g transform="translate(2,-62) scale(1,1)"><path fill="#ffffff" stroke="none" d="M 26 456 L 110 456 Q 120 456 120 466 L 120 512 Q 120 522 110 522 L 26 522 Q 16 522 16 512 L 16 466 Q 16 456 26 456 Z"/></g><g transform="translate(2,-62) scale(1,1)"><path fill="none" stroke="#000000" d="M 26 456 L 110 456 Q 120 456 120 466 L 120 512 Q 120 522 110 522 L 26 522 Q 16 522 16 512 L 16 466 Q 16 456 26 456 Z" stroke-miterlimit="10"/></g><g transform="translate(2,-62) scale(1,1)"><g><path fill="none" stroke="none"/><text fill="#000000" stroke="none" font-family="Arial" font-size="13px" font-style="normal" font-weight="bold" text-decoration="none" x="52.464111328125" y="475.5">Enter</text><text fill="#000000" stroke="none" font-family="Arial" font-size="13px" font-style="normal" font-weight="bold" text-decoration="none" x="32.8466796875" y="488.5">Transformer</text><text fill="#000000" stroke="none" font-family="Arial" font-size="13px" font-style="normal" font-weight="bold" text-decoration="none" x="54.27001953125" y="501.5">Data</text></g></g><g transform="translate(2,-62) scale(1,1)"><path fill="none" stroke="#000000" d="M 186 403 L 180 463" stroke-miterlimit="10"/></g><g transform="translate(2,-62) scale(1,1)"><path fill="none" stroke="#000000" d="M 176.8225972234496 452.46889789264344 L 180 463 L 185.19985066362 453.30662323666047" stroke-miterlimit="10"/></g><g transform="translate(2,-62) scale(1,1)"><g><path fill="none" stroke="none"/><text fill="#000000" stroke="none" font-family="Arial" font-size="13px" font-style="normal" font-weight="normal" text-decoration="none" x="178.5" y="440.5">Delete</text></g></g><g transform="translate(2,-62) scale(1,1)"><path fill="none" stroke="#000000" d="M 197 403 L 260 463" stroke-miterlimit="10"/></g><g transform="translate(2,-62) scale(1,1)"><path fill="none" stroke="#000000" d="M 249.73770596101977 459.03953019737423 L 260 463 L 255.54393734862802 452.94298724038555" stroke-miterlimit="10"/></g><g transform="translate(2,-62) scale(1,1)"><g><path fill="none" stroke="none"/><text fill="#000000" stroke="none" font-family="Arial" font-size="13px" font-style="normal" font-weight="normal" text-decoration="none" x="218.5" y="428.5">Modify</text></g></g><g transform="translate(2,-62) scale(1,1)"><path fill="#C0C0C0" stroke="none" d="M 145 471 L 224.8798828125 471 Q 234.8798828125 471 234.8798828125 481 L 234.8798828125 514 Q 234.8798828125 524 224.8798828125 524 L 145 524 Q 135 524 135 514 L 135 481 Q 135 471 145 471 Z" opacity="0.2"/></g><g transform="translate(2,-62) scale(1,1)"><path fill="#ffffff" stroke="none" d="M 138 464 L 217.8798828125 464 Q 227.8798828125 464 227.8798828125 474 L 227.8798828125 507 Q 227.8798828125 517 217.8798828125 517 L 138 517 Q 128 517 128 507 L 128 474 Q 128 464 138 464 Z"/></g><g transform="translate(2,-62) scale(1,1)"><path fill="none" stroke="#000000" d="M 138 464 L 217.8798828125 464 Q 227.8798828125 464 227.8798828125 474 L 227.8798828125 507 Q 227.8798828125 517 217.8798828125 517 L 138 517 Q 128 517 128 507 L 128 474 Q 128 464 138 464 Z" stroke-miterlimit="10"/></g><g transform="translate(2,-62) scale(1,1)"><g><path fill="none" stroke="none"/><text fill="#000000" stroke="none" font-family="Arial" font-size="13px" font-style="normal" font-weight="bold" text-decoration="none" x="159.87451171875" y="483.5">Select</text><text fill="#000000" stroke="none" font-family="Arial" font-size="13px" font-style="normal" font-weight="bold" text-decoration="none" x="144.7099609375" y="496.5">transformer</text></g></g><g transform="translate(2,-62) scale(1,1)"><path fill="#C0C0C0" stroke="none" d="M 257 471 L 333 471 Q 343 471 343 481 L 343 514 Q 343 524 333 524 L 257 524 Q 247 524 247 514 L 247 481 Q 247 471 257 471 Z" opacity="0.2"/></g><g transform="translate(2,-62) scale(1,1)"><path fill="#ffffff" stroke="none" d="M 250 464 L 326 464 Q 336 464 336 474 L 336 507 Q 336 517 326 517 L 250 517 Q 240 517 240 507 L 240 474 Q 240 464 250 464 Z"/></g><g transform="translate(2,-62) scale(1,1)"><path fill="none" stroke="#000000" d="M 250 464 L 326 464 Q 336 464 336 474 L 336 507 Q 336 517 326 517 L 250 517 Q 240 517 240 507 L 240 474 Q 240 464 250 464 Z" stroke-miterlimit="10"/></g><g transform="translate(2,-62) scale(1,1)"><g><path fill="none" stroke="none"/><text fill="#000000" stroke="none" font-family="Arial" font-size="13px" font-style="normal" font-weight="bold" text-decoration="none" x="269.9345703125" y="483.5">Select</text><text fill="#000000" stroke="none" font-family="Arial" font-size="13px" font-style="normal" font-weight="bold" text-decoration="none" x="254.77001953125" y="496.5">transformer</text></g></g><g transform="translate(2,-62) scale(1,1)"><path fill="#C0C0C0" stroke="none" d="M 417 159 L 574.3271484375 159 Q 584.3271484375 159 584.3271484375 169 L 584.3271484375 202 Q 584.3271484375 212 574.3271484375 212 L 417 212 Q 407 212 407 202 L 407 169 Q 407 159 417 159 Z" opacity="0.2"/></g><g transform="translate(2,-62) scale(1,1)"><path fill="#ffffff" stroke="none" d="M 410 152 L 567.3271484375 152 Q 577.3271484375 152 577.3271484375 162 L 577.3271484375 195 Q 577.3271484375 205 567.3271484375 205 L 410 205 Q 400 205 400 195 L 400 162 Q 400 152 410 152 Z"/></g><g transform="translate(2,-62) scale(1,1)"><path fill="none" stroke="#000000" d="M 410 152 L 567.3271484375 152 Q 577.3271484375 152 577.3271484375 162 L 577.3271484375 195 Q 577.3271484375 205 567.3271484375 205 L 410 205 Q 400 205 400 195 L 400 162 Q 400 152 410 152 Z" stroke-miterlimit="10"/></g><g transform="translate(2,-62) scale(1,1)"><g><path fill="none" stroke="none"/><text fill="#000000" stroke="none" font-family="Arial" font-size="13px" font-style="normal" font-weight="bold" text-decoration="none" x="450.37451171875" y="171.5">Display list of</text><text fill="#000000" stroke="none" font-family="Arial" font-size="13px" font-style="normal" font-weight="bold" text-decoration="none" x="452.18359375" y="184.5">transformers</text></g></g><g transform="translate(2,-62) scale(1,1)"><path fill="none" stroke="#000000" d="M 230 184 L 399 180" stroke-miterlimit="10"/></g><g transform="translate(2,-62) scale(1,1)"><path fill="none" stroke="#000000" d="M 388.9397761953885 184.4488084922964 L 399 180 L 388.7405648744018 176.03213018060796" stroke-miterlimit="10"/></g><g transform="translate(2,-62) scale(1,1)"><path fill="#C0C0C0" stroke="none" d="M 129 287 L 268.99169921875 287 Q 278.99169921875 287 278.99169921875 297 L 278.99169921875 317 Q 278.99169921875 327 268.99169921875 327 L 129 327 Q 119 327 119 317 L 119 297 Q 119 287 129 287 Z" opacity="0.2"/></g><g transform="translate(2,-62) scale(1,1)"><path fill="#ffffff" stroke="none" d="M 122 280 L 261.99169921875 280 Q 271.99169921875 280 271.99169921875 290 L 271.99169921875 310 Q 271.99169921875 320 261.99169921875 320 L 122 320 Q 112 320 112 310 L 112 290 Q 112 280 122 280 Z"/></g><g transform="translate(2,-62) scale(1,1)"><path fill="none" stroke="#000000" d="M 122 280 L 261.99169921875 280 Q 271.99169921875 280 271.99169921875 290 L 271.99169921875 310 Q 271.99169921875 320 261.99169921875 320 L 122 320 Q 112 320 112 310 L 112 290 Q 112 280 122 280 Z" stroke-miterlimit="10"/></g><g transform="translate(2,-62) scale(1,1)"><g><path fill="none" stroke="none"/><text fill="#000000" stroke="none" font-family="Arial" font-size="13px" font-style="normal" font-weight="bold" text-decoration="none" x="121.181396484375" y="299.5">Select what edit to make</text></g></g><g transform="translate(2,-62) scale(1,1)"><path fill="none" stroke="#000000" d="M 420 206 L 242 279" stroke-miterlimit="10"/></g><g transform="translate(2,-62) scale(1,1)"><path fill="none" stroke="#000000" d="M 249.80539441157848 271.2491408166772 L 242 279 L 252.99993240681232 279.03856222971314" stroke-miterlimit="10"/></g><g transform="translate(2,-62) scale(1,1)"><path fill="none" stroke="#000000" d="M 190 321 L 187 383" stroke-miterlimit="10"/></g><g transform="translate(2,-62) scale(1,1)"><path fill="none" stroke="#000000" d="M 183.28656918273148 372.6457529696573 L 187 383 L 191.69576617687832 373.05264959840633" stroke-miterlimit="10"/></g><g transform="translate(2,-62) scale(1,1)"><path fill="#C0C0C0" stroke="none" d="M 425 479 L 552.70263671875 479 Q 562.70263671875 479 562.70263671875 489 L 562.70263671875 522 Q 562.70263671875 532 552.70263671875 532 L 425 532 Q 415 532 415 522 L 415 489 Q 415 479 425 479 Z" opacity="0.2"/></g><g transform="translate(2,-62) scale(1,1)"><path fill="#ffffff" stroke="none" d="M 418 472 L 545.70263671875 472 Q 555.70263671875 472 555.70263671875 482 L 555.70263671875 515 Q 555.70263671875 525 545.70263671875 525 L 418 525 Q 408 525 408 515 L 408 482 Q 408 472 418 472 Z"/></g><g transform="translate(2,-62) scale(1,1)"><path fill="none" stroke="#000000" d="M 418 472 L 545.70263671875 472 Q 555.70263671875 472 555.70263671875 482 L 555.70263671875 515 Q 555.70263671875 525 545.70263671875 525 L 418 525 Q 408 525 408 515 L 408 482 Q 408 472 418 472 Z" stroke-miterlimit="10"/></g><g transform="translate(2,-62) scale(1,1)"><g><path fill="none" stroke="none"/><text fill="#000000" stroke="none" font-family="Arial" font-size="13px" font-style="normal" font-weight="bold" text-decoration="none" x="431.635009765625" y="491.5">Send transformer</text><text fill="#000000" stroke="none" font-family="Arial" font-size="13px" font-style="normal" font-weight="bold" text-decoration="none" x="469.200439453125" y="504.5">data</text></g></g><g transform="translate(2,-62) scale(1,1)"><path fill="none" stroke="#000000" d="M 337 492 L 407 495" stroke-miterlimit="10"/></g><g transform="translate(2,-62) scale(1,1)"><path fill="none" stroke="#000000" d="M 396.6664029230053 498.77051341999027 L 407 495 L 397.02688782497756 490.3591990406376" stroke-miterlimit="10"/></g><g transform="translate(2,-62) scale(1,1)"><path fill="#C0C0C0" stroke="none" d="M 257 567 L 333 567 Q 343 567 343 577 L 343 610 Q 343 620 333 620 L 257 620 Q 247 620 247 610 L 247 577 Q 247 567 257 567 Z" opacity="0.2"/></g><g transform="translate(2,-62) scale(1,1)"><path fill="#ffffff" stroke="none" d="M 250 560 L 326 560 Q 336 560 336 570 L 336 603 Q 336 613 326 613 L 250 613 Q 240 613 240 603 L 240 570 Q 240 560 250 560 Z"/></g><g transform="translate(2,-62) scale(1,1)"><path fill="none" stroke="#000000" d="M 250 560 L 326 560 Q 336 560 336 570 L 336 603 Q 336 613 326 613 L 250 613 Q 240 613 240 603 L 240 570 Q 240 560 250 560 Z" stroke-miterlimit="10"/></g><g transform="translate(2,-62) scale(1,1)"><g><path fill="none" stroke="none"/><text fill="#000000" stroke="none" font-family="Arial" font-size="13px" font-style="normal" font-weight="bold" text-decoration="none" x="272.464111328125" y="579.5">Enter</text><text fill="#000000" stroke="none" font-family="Arial" font-size="13px" font-style="normal" font-weight="bold" text-decoration="none" x="248.974609375" y="592.5">modified data</text></g></g><g transform="translate(2,-62) scale(1,1)"><path fill="#C0C0C0" stroke="none" d="M 167 672.5 L 178.5 663 L 189 672.5 L 178.5 681 L 167 672.5" opacity="0.2"/></g><g transform="translate(2,-62) scale(1,1)"><path fill="#ffffff" stroke="none" d="M 160 665 L 171 656 L 182 665 L 171 674 L 160 665"/></g><g transform="translate(2,-62) scale(1,1)"><path fill="none" stroke="#000000" d="M 160 665 L 171 656 L 182 665 L 171 674 L 160 665 L 160 665" stroke-miterlimit="10"/></g><g transform="translate(2,-62) scale(1,1)"><path fill="none" stroke="#000000" d="M 88 523 L 165 655" stroke-miterlimit="10"/></g><g transform="translate(2,-62) scale(1,1)"><path fill="none" stroke="#000000" d="M 156.24322997681713 648.3427499099789 L 165 655 L 163.515415218025 644.1006418526076" stroke-miterlimit="10"/></g><g transform="translate(2,-62) scale(1,1)"><path fill="none" stroke="#000000" d="M 176 518 L 171 655" stroke-miterlimit="10"/></g><g transform="translate(2,-62) scale(1,1)"><path fill="none" stroke="#000000" d="M 167.16393672273338 644.6905568272188 L 171 655 L 175.57737082131507 644.9976164658531" stroke-miterlimit="10"/></g><g transform="translate(2,-62) scale(1,1)"><path fill="none" stroke="#000000" d="M 247 614 L 183 657" stroke-miterlimit="10"/></g><g transform="translate(2,-62) scale(1,1)"><path fill="none" stroke="#000000" d="M 189.08792003059892 647.838273650614 L 183 657 L 193.78312836598417 654.8264907079316" stroke-miterlimit="10"/></g><g transform="translate(2,-62) scale(1,1)"><path fill="none" stroke="#000000" d="M 420 526 L 337 564" stroke-miterlimit="10"/></g><g transform="translate(2,-62) scale(1,1)"><path fill="none" stroke="#000000" d="M 344.48795900739935 555.9420554790005 L 337 564 L 347.99261380460274 563.5969593781552" stroke-miterlimit="10"/></g><g transform="translate(2,-62) scale(1,1)"><path fill="#C0C0C0" stroke="none" d="M 449 663 L 542.03173828125 663 Q 552.03173828125 663 552.03173828125 673 L 552.03173828125 693 Q 552.03173828125 703 542.03173828125 703 L 449 703 Q 439 703 439 693 L 439 673 Q 439 663 449 663 Z" opacity="0.2"/></g><g transform="translate(2,-62) scale(1,1)"><path fill="#ffffff" stroke="none" d="M 442 656 L 535.03173828125 656 Q 545.03173828125 656 545.03173828125 666 L 545.03173828125 686 Q 545.03173828125 696 535.03173828125 696 L 442 696 Q 432 696 432 686 L 432 666 Q 432 656 442 656 Z"/></g><g transform="translate(2,-62) scale(1,1)"><path fill="none" stroke="#000000" d="M 442 656 L 535.03173828125 656 Q 545.03173828125 656 545.03173828125 666 L 545.03173828125 686 Q 545.03173828125 696 535.03173828125 696 L 442 696 Q 432 696 432 686 L 432 666 Q 432 656 442 656 Z" stroke-miterlimit="10"/></g><g transform="translate(2,-62) scale(1,1)"><g><path fill="none" stroke="none"/><text fill="#000000" stroke="none" font-family="Arial" font-size="13px" font-style="normal" font-weight="bold" text-decoration="none" x="439.004150390625" y="675.5">Update database</text></g></g><g transform="translate(2,-62) scale(1,1)"><path fill="none" stroke="#000000" d="M 183 665 L 431 674" stroke-miterlimit="10"/></g><g transform="translate(2,-62) scale(1,1)"><path fill="none" stroke="#000000" d="M 420.6913463356591 677.8381844182726 L 431 674 L 420.99667485943587 669.4246873186461" stroke-miterlimit="10"/></g><g transform="translate(2,-62) scale(1,1)"><path fill="#C0C0C0" stroke="none" d="M 479 747.5 C 479 740.59644 484.59644 735 491.5 735 C 498.40356 735 504 740.59644 504 747.5 C 504 754.40356 498.40356 760 491.5 760 C 484.59644 760 479 754.40356 479 747.5 Z" opacity="0.2"/></g><g transform="translate(2,-62) scale(1,1)"><path fill="none" stroke="#000000" d="M 472 740.5 C 472 733.59644 477.59644 728 484.5 728 C 491.40356 728 497 733.59644 497 740.5 C 497 747.40356 491.40356 753 484.5 753 C 477.59644 753 472 747.40356 472 740.5 Z" stroke-miterlimit="10"/></g><g transform="translate(2,-62) scale(1,1)"><path fill="#000000" stroke="none" d="M 477 740.5 C 477 736.357864 480.357864 733 484.5 733 C 488.642136 733 492 736.357864 492 740.5 C 492 744.642136 488.642136 748 484.5 748 C 480.357864 748 477 744.642136 477 740.5 Z"/></g><g transform="translate(2,-62) scale(1,1)"><path fill="none" stroke="#000000" d="M 487 697 L 485 727" stroke-miterlimit="10"/></g><g transform="translate(2,-62) scale(1,1)"><path fill="none" stroke="#000000" d="M 481.4758167371174 716.5798209070276 L 485 727 L 489.8762054144906 717.1398468188526" stroke-miterlimit="10"/></g></g></svg>